<svg width="30" height="32" viewBox="0 0 30 32" fill="none" xmlns="http://www.w3.org/2000/svg">
<path d="M14.4716 31.8934C14.6157 31.938 14.7656 31.9608 14.9165 31.9611C15.0636 31.9607 15.2099 31.9387 15.3506 31.8956C17.4924 31.2818 19.5162 30.3136 21.338 29.0311C21.4462 28.9469 21.5179 28.8242 21.538 28.6886C21.5581 28.5529 21.5251 28.4148 21.4459 28.3028C21.3667 28.1909 21.2473 28.1138 21.1127 28.0876C20.9781 28.0614 20.8386 28.0881 20.7232 28.1622C18.9959 29.377 17.0773 30.2937 15.047 30.8743C14.9586 30.9026 14.8637 30.9026 14.7753 30.8743C12.1235 30.1216 9.67116 28.7913 7.59412 26.979C7.54246 26.9281 7.48095 26.8884 7.41337 26.8621C7.3458 26.8358 7.27357 26.8236 7.20111 26.8262C7.12865 26.8288 7.0575 26.8462 6.99199 26.8773C6.92648 26.9084 6.86801 26.9525 6.82016 27.007C6.7723 27.0614 6.73606 27.1251 6.71367 27.1941C6.69127 27.263 6.68319 27.3358 6.68991 27.408C6.69664 27.4802 6.71803 27.5503 6.75277 27.6139C6.78752 27.6775 6.83489 27.7334 6.89198 27.7781C9.08424 29.6919 11.6726 31.0972 14.4716 31.8934ZM0.83593 6.9511C0.766563 6.94181 0.696044 6.94628 0.628404 6.96425C0.560764 6.98222 0.497328 7.01335 0.44172 7.05584C0.386113 7.09834 0.339424 7.15138 0.304322 7.21193C0.26922 7.27247 0.246393 7.33934 0.237144 7.40872C-0.138429 10.2167 -0.585921 17.4176 3.35627 23.6404C3.39369 23.6995 3.4424 23.7507 3.4996 23.791C3.5568 23.8313 3.62138 23.8599 3.68965 23.8752C3.75791 23.8906 3.82853 23.8923 3.89747 23.8804C3.96641 23.8684 4.03232 23.843 4.09143 23.8056C4.15055 23.7681 4.20171 23.7194 4.242 23.6622C4.2823 23.605 4.31093 23.5404 4.32626 23.4722C4.3416 23.4039 4.34334 23.3333 4.33138 23.2644C4.31942 23.1954 4.29401 23.1295 4.25658 23.0704C0.500844 17.1443 0.932887 10.2423 1.29248 7.54989C1.31126 7.40996 1.27373 7.26829 1.18812 7.15602C1.10252 7.04374 0.975843 6.97004 0.83593 6.9511ZM4.81541 24.7943C4.76084 24.8382 4.71545 24.8924 4.68184 24.9538C4.64823 25.0152 4.62706 25.0827 4.61953 25.1523C4.61201 25.2219 4.61829 25.2923 4.63801 25.3595C4.65772 25.4267 4.69049 25.4893 4.73443 25.5438C4.89425 25.742 5.06526 25.9402 5.24106 26.1384C5.28748 26.1908 5.34377 26.2337 5.40674 26.2644C5.4697 26.2951 5.5381 26.3131 5.60802 26.3174C5.67794 26.3216 5.74803 26.3121 5.81426 26.2893C5.8805 26.2665 5.9416 26.2309 5.99407 26.1845C6.04654 26.138 6.08935 26.0817 6.12006 26.0188C6.15078 25.9558 6.16879 25.8874 6.17306 25.8175C6.17734 25.7476 6.16781 25.6775 6.145 25.6112C6.1222 25.545 6.08657 25.4839 6.04015 25.4314C5.87848 25.2493 5.72058 25.0639 5.56656 24.8753C5.52267 24.8205 5.46838 24.7749 5.40682 24.7411C5.34525 24.7074 5.27763 24.6861 5.20782 24.6786C5.13801 24.6711 5.06741 24.6774 5.00007 24.6973C4.93272 24.7171 4.86997 24.7501 4.81541 24.7943ZM28.2283 5.65444C26.2927 5.31757 24.3964 4.78476 22.5686 4.06425C20.1777 3.11796 17.9233 1.85784 15.8647 0.317041C15.5911 0.111269 15.258 0 14.9157 0C14.5733 0 14.2402 0.111269 13.9666 0.317041C12.941 1.08426 11.8662 1.78329 10.7489 2.4096C10.6878 2.44375 10.6339 2.48963 10.5905 2.54462C10.5471 2.59961 10.5149 2.66263 10.4959 2.73006C10.4769 2.79749 10.4713 2.86802 10.4796 2.93759C10.4878 3.00717 10.5098 3.07443 10.5441 3.13553C10.5783 3.19663 10.6244 3.25036 10.6795 3.29365C10.7345 3.33694 10.7976 3.36894 10.8651 3.38781C10.9326 3.40668 11.0031 3.41205 11.0727 3.40362C11.1422 3.39519 11.2095 3.37312 11.2705 3.33868C12.4292 2.68787 13.544 1.96162 14.6075 1.16461C14.6959 1.09662 14.8044 1.05975 14.9159 1.05975C15.0275 1.05975 15.1359 1.09662 15.2244 1.16461C17.3593 2.76364 19.6976 4.07143 22.1775 5.05353C24.0743 5.80164 26.0422 6.35497 28.0509 6.70498C28.1602 6.72353 28.2606 6.77673 28.3374 6.85674C28.4141 6.93674 28.4631 7.0393 28.4771 7.14928C28.8196 9.40059 29.3411 15.2404 26.7883 20.8212C26.7579 20.885 26.7404 20.9542 26.737 21.0248C26.7335 21.0953 26.7442 21.1659 26.7683 21.2323C26.7924 21.2987 26.8294 21.3597 26.8773 21.4117C26.9252 21.4637 26.9829 21.5056 27.0472 21.535C27.1114 21.5644 27.1809 21.5808 27.2515 21.5831C27.3221 21.5855 27.3925 21.5737 27.4585 21.5486C27.5246 21.5235 27.585 21.4855 27.6362 21.4368C27.6874 21.3881 27.7284 21.3297 27.7568 21.265C30.4295 15.4225 29.8877 9.33506 29.5308 6.98786C29.4825 6.65647 29.3304 6.3489 29.0964 6.10933C28.8624 5.86976 28.5584 5.71051 28.2283 5.65444Z" fill="#E5097F"/>
<path d="M14.4025 28.1398C14.5671 28.2002 14.7411 28.2314 14.9165 28.232C15.0892 28.2318 15.2605 28.2013 15.4226 28.1419C16.1576 27.8834 16.8742 27.5753 17.5674 27.2198C17.6296 27.1877 17.6849 27.1438 17.7302 27.0903C17.7754 27.0369 17.8097 26.9751 17.831 26.9085C17.8524 26.8418 17.8604 26.7716 17.8546 26.7019C17.8488 26.6321 17.8293 26.5642 17.7973 26.5019C17.7652 26.4397 17.7212 26.3844 17.6678 26.3392C17.6144 26.2939 17.5526 26.2597 17.486 26.2383C17.4193 26.217 17.3491 26.209 17.2793 26.2148C17.2096 26.2206 17.1417 26.24 17.0794 26.2721C16.4279 26.6071 15.7542 26.8972 15.063 27.1404C14.9663 27.1782 14.8588 27.1782 14.7621 27.1404C12.3737 26.3222 10.227 24.9213 8.51635 23.0645C4.49532 18.6796 4.14106 12.809 4.28702 9.71115C4.29203 9.62858 4.31283 9.54775 4.34829 9.47302C4.39989 9.34726 4.40147 9.20654 4.3527 9.07966C4.30393 8.95278 4.20851 8.84934 4.08597 8.79052C3.96342 8.7317 3.82303 8.72194 3.69353 8.76326C3.56403 8.80457 3.45522 8.89382 3.38938 9.01274C3.29441 9.21339 3.23888 9.43041 3.22583 9.65201C3.07134 12.9267 3.45171 19.1181 7.73324 23.7869C9.56005 25.7695 11.8522 27.2656 14.4025 28.1398ZM24.7049 18.6429C24.7633 18.6647 24.8252 18.6759 24.8876 18.6759C24.9968 18.6759 25.1034 18.6423 25.1928 18.5797C25.2823 18.5171 25.3504 18.4285 25.3878 18.3259C26.3584 15.5414 26.7729 12.5935 26.6078 9.64935C26.5975 9.43404 26.5447 9.22291 26.4523 9.02814C26.36 8.83338 26.23 8.65885 26.0697 8.51464C26.019 8.46214 25.958 8.42063 25.8905 8.39271C25.823 8.36478 25.7505 8.35103 25.6775 8.3523C25.6044 8.35358 25.5325 8.36986 25.466 8.40013C25.3995 8.43039 25.34 8.474 25.2911 8.52825C25.2422 8.5825 25.205 8.64622 25.1817 8.71546C25.1585 8.7847 25.1497 8.85797 25.156 8.93074C25.1623 9.0035 25.1835 9.0742 25.2182 9.13843C25.253 9.20267 25.3005 9.25907 25.358 9.30414C25.4138 9.35471 25.4589 9.41582 25.4909 9.48394C25.5229 9.55206 25.5411 9.62584 25.5445 9.70103C25.703 12.5025 25.3104 15.3079 24.389 17.9583C24.3647 18.024 24.3537 18.0938 24.3564 18.1638C24.3592 18.2338 24.3757 18.3025 24.405 18.3661C24.4344 18.4297 24.4759 18.4868 24.5274 18.5343C24.5789 18.5818 24.6392 18.6187 24.7049 18.6429ZM14.7093 4.83562C14.7846 4.8014 14.8673 4.78668 14.9498 4.79282C15.0323 4.79897 15.1119 4.82578 15.1813 4.87078C16.7147 5.86055 18.3289 6.71916 20.0068 7.43746C20.1357 7.48785 20.2791 7.4861 20.4067 7.43259C20.5343 7.37907 20.6361 7.278 20.6905 7.15076C20.7449 7.02352 20.7477 6.8801 20.6982 6.75086C20.6488 6.62162 20.551 6.5167 20.4255 6.45831C18.8028 5.76291 17.2415 4.93212 15.7583 3.97473C15.5407 3.8347 15.2917 3.75096 15.0338 3.73106C14.7758 3.71116 14.5169 3.75572 14.2805 3.86073C14.1585 3.92189 14.0647 4.0275 14.0183 4.1558C13.9719 4.28411 13.9765 4.42531 14.0311 4.55032C14.0858 4.67533 14.1863 4.7746 14.312 4.82769C14.4377 4.88077 14.5789 4.88361 14.7067 4.83562H14.7093ZM23.1685 8.61426C23.2183 8.62924 23.27 8.63678 23.3219 8.63663C23.4498 8.63654 23.5734 8.59044 23.6701 8.50677C23.7668 8.4231 23.8302 8.30744 23.8487 8.1809C23.8671 8.05437 23.8395 7.92541 23.7708 7.81757C23.702 7.70974 23.5968 7.63022 23.4743 7.59355C23.2149 7.51475 22.9577 7.42895 22.7029 7.33625C22.57 7.28835 22.4234 7.29523 22.2955 7.35537C22.1677 7.41552 22.0689 7.524 22.021 7.65695C21.9731 7.7899 21.98 7.93643 22.0401 8.06431C22.1003 8.19219 22.2088 8.29094 22.3417 8.33884C22.6177 8.43793 22.8931 8.53169 23.1685 8.61426Z" fill="#E5097F"/>
<path d="M12.0454 14.6372C11.7288 14.327 11.3032 14.1532 10.8599 14.1532C10.4166 14.1532 9.99092 14.327 9.67428 14.6372L9.0073 15.3175C8.69695 15.6377 8.52339 16.066 8.52339 16.5119C8.52339 16.9578 8.69695 17.3861 9.0073 17.7063L13.0891 21.8717C13.2432 22.03 13.4275 22.1558 13.6311 22.2417C13.8347 22.3276 14.0534 22.3718 14.2744 22.3718C14.4953 22.3718 14.7141 22.3276 14.9176 22.2417C15.1212 22.1558 15.3055 22.03 15.4597 21.8717L22.9563 14.2212C23.2666 13.901 23.4402 13.4727 23.4402 13.0268C23.4402 12.5809 23.2666 12.1526 22.9563 11.8324L22.2893 11.1521C22.1355 10.9935 21.9513 10.8675 21.7478 10.7815C21.5442 10.6956 21.3254 10.6515 21.1045 10.6519C20.8834 10.6515 20.6644 10.6955 20.4607 10.7815C20.257 10.8674 20.0726 10.9935 19.9186 11.1521L14.6979 16.4794C14.585 16.5911 14.4326 16.6537 14.2739 16.6537C14.1151 16.6537 13.9627 16.5911 13.8498 16.4794L12.0454 14.6372ZM15.4597 17.2247L20.6804 11.8974C20.7354 11.8404 20.8014 11.7951 20.8743 11.7641C20.9472 11.7332 21.0256 11.7172 21.1048 11.7172C21.184 11.7172 21.2623 11.7332 21.3352 11.7641C21.4082 11.7951 21.4741 11.8404 21.5291 11.8974L22.196 12.5782C22.3127 12.6984 22.3779 12.8593 22.3779 13.0268C22.3779 13.1943 22.3127 13.3552 22.196 13.4754L14.6984 21.1264C14.5855 21.238 14.4332 21.3007 14.2744 21.3007C14.1156 21.3007 13.9632 21.238 13.8503 21.1264L9.76857 16.9605C9.65193 16.8403 9.58669 16.6794 9.58669 16.5119C9.58669 16.3444 9.65193 16.1835 9.76857 16.0633L10.4355 15.3825C10.5486 15.271 10.701 15.2084 10.8599 15.2084C11.0187 15.2084 11.1711 15.271 11.2842 15.3825L13.0891 17.2247C13.4057 17.5348 13.8312 17.7084 14.2744 17.7084C14.7176 17.7084 15.1431 17.5348 15.4597 17.2247ZM2.66357 6.39007C2.66363 6.51459 2.70731 6.63515 2.78701 6.73081C2.86672 6.82648 2.97742 6.8912 3.09988 6.91374C6.47791 7.53597 6.84496 7.90302 7.46825 11.2821C7.49107 11.4043 7.55592 11.5147 7.65156 11.5941C7.7472 11.6735 7.8676 11.717 7.99192 11.717C8.11624 11.717 8.23664 11.6735 8.33228 11.5941C8.42792 11.5147 8.49277 11.4043 8.51559 11.2821C9.13782 7.90408 9.50487 7.53703 12.884 6.91374C13.0062 6.89091 13.1165 6.82607 13.196 6.73043C13.2754 6.63479 13.3189 6.51439 13.3189 6.39007C13.3189 6.26575 13.2754 6.14534 13.196 6.04971C13.1165 5.95407 13.0062 5.88922 12.884 5.8664C9.50593 5.24417 9.13888 4.87712 8.51559 1.49803C8.49277 1.37582 8.42792 1.26545 8.33228 1.18602C8.23664 1.10659 8.11624 1.06311 7.99192 1.06311C7.8676 1.06311 7.7472 1.10659 7.65156 1.18602C7.55592 1.26545 7.49107 1.37582 7.46825 1.49803C6.84602 4.87606 6.47897 5.2431 3.09988 5.8664C2.97742 5.88893 2.86672 5.95366 2.78701 6.04932C2.70731 6.14499 2.66363 6.26555 2.66357 6.39007ZM7.99086 3.88145C8.14906 4.48445 8.46475 5.03454 8.90556 5.47536C9.34638 5.91617 9.89647 6.23186 10.4995 6.39007C9.89647 6.54828 9.34638 6.86396 8.90556 7.30478C8.46475 7.74559 8.14906 8.29569 7.99086 8.89868C7.83265 8.29569 7.51696 7.74559 7.07615 7.30478C6.63533 6.86396 6.08524 6.54828 5.48224 6.39007C6.08524 6.23186 6.63533 5.91617 7.07615 5.47536C7.51696 5.03454 7.83265 4.48445 7.99086 3.88145ZM29.3964 25.0446C26.0184 24.4224 25.6513 24.0553 25.028 20.6762C25.0052 20.554 24.9404 20.4437 24.8447 20.3642C24.7491 20.2848 24.6287 20.2413 24.5044 20.2413C24.38 20.2413 24.2596 20.2848 24.164 20.3642C24.0684 20.4437 24.0035 20.554 23.9807 20.6762C23.3585 24.0543 22.9914 24.4213 19.6123 25.0446C19.4901 25.0674 19.3797 25.1323 19.3003 25.2279C19.2209 25.3236 19.1774 25.444 19.1774 25.5683C19.1774 25.6926 19.2209 25.813 19.3003 25.9086C19.3797 26.0043 19.4901 26.0691 19.6123 26.092C22.9903 26.7142 23.3574 27.0812 23.9807 30.4603C24.0035 30.5825 24.0684 30.6929 24.164 30.7723C24.2596 30.8518 24.38 30.8952 24.5044 30.8952C24.6287 30.8952 24.7491 30.8518 24.8447 30.7723C24.9404 30.6929 25.0052 30.5825 25.028 30.4603C25.6503 27.0823 26.0173 26.7152 29.3964 26.092C29.5186 26.0691 29.629 26.0043 29.7084 25.9086C29.7878 25.813 29.8313 25.6926 29.8313 25.5683C29.8313 25.444 29.7878 25.3236 29.7084 25.2279C29.629 25.1323 29.5186 25.0674 29.3964 25.0446ZM24.5054 28.0769C24.3472 27.4739 24.0315 26.9238 23.5907 26.483C23.1499 26.0422 22.5998 25.7265 21.9968 25.5683C22.5998 25.4101 23.1499 25.0944 23.5907 24.6536C24.0315 24.2128 24.3472 23.6627 24.5054 23.0597C24.6636 23.6627 24.9793 24.2128 25.4201 24.6536C25.861 25.0944 26.411 25.4101 27.014 25.5683C26.411 25.7265 25.861 26.0422 25.4201 26.483C24.9793 26.9238 24.6636 27.4739 24.5054 28.0769Z" fill="#E5097F"/>
</svg>
