<svg width="39" height="39" viewBox="0 0 39 39" fill="none" xmlns="http://www.w3.org/2000/svg">
<path d="M36.3453 38.0421C37.2674 38.0421 38.0171 37.2921 38.0171 36.3703V29.009C38.0171 27.6945 37.2997 26.5161 36.1596 25.9104V25.4109H37.2741V22.9961C37.2741 22.0744 36.5244 21.3244 35.6023 21.3244H34.3764V16.4759C34.3778 15.0595 33.9535 13.6753 33.1586 12.5029C32.3636 11.3305 31.2347 10.4241 29.9183 9.90119V0H24.3457V9.90119C23.3344 10.3031 22.4295 10.9331 21.7017 11.7422C20.9739 12.5513 20.4428 13.5175 20.1497 14.5656L19.603 13.5439V9.08938H4.45806V13.515L0 20.2021V38.0421H36.3453ZM36.8823 28.7048H26.8925C27.0005 27.8467 27.5592 27.1109 28.3794 26.7829L28.7294 26.6427V25.4109H35.045V26.6427L35.3953 26.7829C36.2155 27.1109 36.7744 27.8466 36.8823 28.7048ZM35.6023 22.4389C35.9097 22.4389 36.1596 22.6888 36.1596 22.9961V24.2964H27.615V22.9961C27.615 22.6888 27.8652 22.4389 28.1722 22.4389H35.6023ZM25.4603 1.11451H28.8038V4.38376H25.4603V1.11451ZM5.57257 10.2039H18.4885V13.1263H5.57257V10.2039ZM14.538 36.9276H1.11451V20.9279H14.5383V36.9276H14.538ZM1.59836 19.8134L5.31341 14.2408H18.0694L14.7775 19.8134H1.59836ZM22.0674 36.9276H15.6528V20.523L19.0219 14.8198C19.0219 14.8317 22.0328 20.4339 22.0674 20.5106C22.0665 20.5088 22.0683 20.5123 22.0674 20.5106V36.9276ZM25.8535 36.9276H23.1819V20.231L21.0106 16.1744C21.0701 14.9758 21.4904 13.8231 22.2165 12.8674C22.9425 11.9118 23.9403 11.1979 25.0792 10.8192L25.4603 10.6924V5.49827H28.8039V10.6924L29.1849 10.8192C30.3727 11.214 31.406 11.973 32.1379 12.9885C32.8697 14.0039 33.263 15.2242 33.2619 16.4759V21.3244H28.1722C27.2505 21.3244 26.5005 22.0744 26.5005 22.9961V25.4109H27.615V25.9104C26.4752 26.5161 25.7575 27.6945 25.7575 29.009V36.3703C25.7575 36.5657 25.7917 36.7531 25.8535 36.9276ZM36.9026 36.3703C36.9026 36.6777 36.6527 36.9276 36.3453 36.9276H27.4292C27.1221 36.9276 26.872 36.6777 26.872 36.3703V35.8377H36.9026V36.3703ZM36.9026 34.7232H26.872V29.8193H36.9026V34.7232Z" fill="#447D39"/>
<path d="M9.84478 15.3552H10.9593V16.4697H9.84478V15.3552ZM4.25853 17.8327L5.18581 18.4506L6.50643 16.4697H8.73026V15.3552H5.91002L4.25853 17.8327ZM31.0327 16.4653L32.1472 16.4624C32.1463 16.0423 32.0909 15.624 31.9824 15.2182L30.9059 15.5065C30.9893 15.8193 31.032 16.1416 31.0327 16.4653ZM30.5367 14.6134L31.5029 14.0578C30.9106 13.0278 29.9621 12.2531 28.8325 11.8767L28.4801 12.9337C29.3502 13.2239 30.0808 13.8204 30.5368 14.6134H30.5367ZM3.65283 26.8225H11.0336V27.937H3.65283V26.8225ZM3.65283 29.6459H11.628V30.7604H3.65283V29.6459ZM3.65283 32.4694H8.36076V33.5839H3.65283V32.4694ZM29.4724 31.7139H30.5869V32.8284H29.4724V31.7139ZM31.7014 31.7139H32.816V32.8284H31.7014V31.7139ZM33.9305 31.7139H35.045V32.8284H33.9305V31.7139Z" fill="#447D39"/>
</svg>
