<svg width="444" height="512" viewBox="0 0 444 512" fill="none" xmlns="http://www.w3.org/2000/svg">
<path d="M391.283 70.223C332.758 70.223 276.497 48.744 232.862 9.744L221.962 0L211.063 9.744C167.429 48.745 111.166 70.224 52.641 70.224H0V185.555C0 252.342 18.98 317.41 54.889 373.723C90.798 430.036 141.785 474.694 202.339 502.87L221.962 512L241.585 502.87C302.138 474.694 353.126 430.037 389.035 373.723C424.944 317.409 443.924 252.342 443.924 185.555V70.223H391.283ZM413.912 185.554C413.912 246.614 396.559 306.101 363.73 357.586C330.901 409.07 284.286 449.899 228.924 475.659L221.962 478.898L214.999 475.658C159.637 449.898 113.023 409.07 80.193 357.585C47.364 306.1 30.012 246.613 30.012 185.553V100.234H52.642C114.556 100.234 174.219 78.893 221.963 39.896C269.706 78.891 329.369 100.234 391.284 100.234H413.914V185.554H413.912Z" fill="#0A504B"/>
<path d="M267.644 210.345V158.904H176.28V210.345H124.839V301.709H176.28V353.15H267.644V301.71H319.085V210.346L267.644 210.345ZM289.074 271.699H237.633V323.14H206.291V271.699H154.85V240.357H206.291V188.916H237.633V240.357H289.074V271.699Z" fill="#0A504B"/>
</svg>
