<svg width="510" height="512" viewBox="0 0 510 512" fill="none" xmlns="http://www.w3.org/2000/svg">
<path d="M207.548 468.616L45.4395 300.002C32.4811 286.524 32.9029 265.093 46.3806 252.135C59.8594 239.176 81.2899 239.598 94.2482 253.076L256.356 421.689C269.315 435.168 268.893 456.598 255.415 469.557C241.938 482.515 220.506 482.094 207.548 468.616Z" stroke="#0A504B" stroke-width="29.9085" stroke-miterlimit="1"/>
<path d="M130.966 486.654L24.4039 375.816C11.4455 362.338 11.8672 340.907 25.345 327.949C38.8238 314.99 60.2542 315.412 73.2126 328.89L179.775 439.728C192.733 453.207 192.311 474.637 178.834 487.596C165.355 500.554 143.924 500.133 130.966 486.654ZM302.059 43.3842L464.167 211.997C477.125 225.476 476.703 246.907 463.226 259.865C449.747 272.823 428.316 272.402 415.358 258.924L253.249 90.3106C240.291 76.8319 240.712 55.4014 254.19 42.443C267.669 29.4847 289.1 29.9054 302.059 43.3842Z" stroke="#0A504B" stroke-width="29.9085" stroke-miterlimit="1"/>
<path d="M149.164 310.195L310.01 149.349M361.137 202.527L200.77 362.895M378.64 25.3453L485.202 136.183C498.161 149.662 497.739 171.093 484.261 184.051C470.783 197.009 449.352 196.588 436.394 183.11L329.832 72.2718C316.873 58.793 317.295 37.3626 330.773 24.4042C344.252 11.4459 365.682 11.8666 378.64 25.3453Z" stroke="#0A504B" stroke-width="29.9085" stroke-miterlimit="1"/>
</svg>
