<svg width="42" height="33" viewBox="0 0 42 33" fill="none" xmlns="http://www.w3.org/2000/svg">
<path d="M38.8144 18.4165C38.9363 18.4165 39.0559 18.3828 39.1599 18.3191C39.2639 18.2553 39.3482 18.1641 39.4035 18.0554C39.4588 17.9467 39.483 17.8249 39.4734 17.7033C39.4637 17.5818 39.4206 17.4652 39.3489 17.3666L35.8467 12.5527C35.7854 12.4684 35.705 12.3999 35.6121 12.3526C35.5192 12.3053 35.4164 12.2806 35.3122 12.2806H31.8579C31.6826 12.2806 31.5144 12.3503 31.3905 12.4742C31.2665 12.5982 31.1969 12.7663 31.1969 12.9416V17.7556C31.1969 17.9309 31.2665 18.099 31.3905 18.2229C31.5144 18.3469 31.6826 18.4165 31.8579 18.4165H38.8143L38.8144 18.4165ZM32.5189 13.6025H34.9757L37.5161 17.0945H32.5189V13.6025ZM38.039 26.2232H41.1469C41.3222 26.2232 41.4903 26.1536 41.6143 26.0296C41.7382 25.9056 41.8079 25.7375 41.8079 25.5622V18.4141C41.8079 17.7625 41.6215 17.1898 41.2383 16.6633L37.1917 11.1008C36.7698 10.5209 36.1424 10.2016 35.4253 10.2016H30.2941V7.03351C30.2941 6.85821 30.2245 6.69008 30.1005 6.56612C29.9766 6.44216 29.8084 6.37252 29.6331 6.37252H28.0914C28.9589 5.37566 28.9378 4.46043 28.858 4.02839C28.6733 3.02798 27.8078 2.26362 26.6533 2.08119C25.2391 1.85777 23.2857 2.47944 21.4999 4.64791C21.6996 3.20083 22.1477 2.1872 23.0044 1.0612C23.1106 0.921681 23.1569 0.745724 23.1333 0.572029C23.1097 0.398333 23.0181 0.241124 22.8786 0.13498C22.8095 0.0824088 22.7308 0.0439608 22.6468 0.0218327C22.5629 -0.000295359 22.4754 -0.00567007 22.3894 0.00601542C22.3034 0.0177009 22.2205 0.0462178 22.1455 0.0899371C22.0705 0.133656 22.0049 0.191722 21.9523 0.260817C20.8755 1.67625 20.3373 3.01145 20.1383 4.93304C18.2926 2.53306 16.2315 1.84819 14.7574 2.08127C13.6029 2.26371 12.7375 3.02806 12.5527 4.02847C12.4728 4.46043 12.4518 5.37574 13.3193 6.3726H1.98455C0.890274 6.3726 0 7.26279 0 8.35707C0 9.45134 0.890192 10.3415 1.98455 10.3415H8.51276C8.87804 10.3415 9.17524 10.6387 9.17524 11.004C9.17524 11.3693 8.87804 11.6665 8.51276 11.6665H5.92861C4.83442 11.6665 3.94414 12.5568 3.94414 13.651C3.94414 14.7453 4.83433 15.6355 5.92861 15.6355H9.84127C10.2066 15.6355 10.5038 15.9327 10.5038 16.298C10.5038 16.6633 10.2066 16.9605 9.84127 16.9605H4.89068C3.79649 16.9605 2.90622 17.8507 2.90622 18.9449C2.90622 20.0392 3.79641 20.9294 4.89068 20.9294H12.1818C12.5471 20.9294 12.8443 21.2266 12.8443 21.592C12.8443 21.9573 12.5471 22.2544 12.1818 22.2544H10.4123C9.3181 22.2544 8.42782 23.1447 8.42782 24.239C8.42782 25.3333 9.31801 26.2234 10.4123 26.2234H14.6348C14.7356 27.4587 15.5053 28.5069 16.5808 29.0047H0.660993C0.485686 29.0047 0.31756 29.0743 0.1936 29.1983C0.0696401 29.3222 0 29.4903 0 29.6657C0 29.841 0.0696401 30.0091 0.1936 30.133C0.31756 30.257 0.485686 30.3266 0.660993 30.3266H41.1468C41.3221 30.3266 41.4902 30.257 41.6142 30.133C41.7381 30.0091 41.8078 29.841 41.8078 29.6657C41.8078 29.4903 41.7381 29.3222 41.6142 29.1983C41.4902 29.0743 41.3221 29.0047 41.1468 29.0047H36.0929C37.1683 28.5069 37.9381 27.4587 38.0389 26.2234L38.039 26.2232ZM30.2942 11.5235H35.4254C35.7167 11.5235 35.9513 11.6429 36.1227 11.8784L40.1694 17.4409C40.3883 17.7417 40.4859 18.0418 40.4859 18.414V22.0296H39.39V23.3516H40.4859V24.9011H37.884C37.443 23.5549 36.1755 22.5796 34.6838 22.5796C33.1921 22.5796 31.9245 23.555 31.4835 24.9011H30.2942V11.5235ZM26.4471 3.3869C27.0495 3.48208 27.4752 3.81985 27.5581 4.26841C27.653 4.78242 27.2924 5.59577 26.0182 6.37235H21.8709C23.4956 3.91586 25.3045 3.20595 26.4471 3.3869ZM22.5845 7.69442V12.7314L21.1026 11.6172C20.9881 11.5311 20.8487 11.4845 20.7054 11.4845C20.5621 11.4845 20.4227 11.5311 20.3082 11.6172L18.8263 12.7313V7.69434H22.5845L22.5845 7.69442ZM13.8527 4.2685C13.9355 3.81993 14.3613 3.48208 14.9637 3.38698C16.1063 3.20595 17.9152 3.91602 19.5399 6.37252H15.3925C14.1183 5.59594 13.7577 4.7825 13.8527 4.2685ZM14.7896 24.9012H10.4122C10.0469 24.9012 9.74972 24.604 9.74972 24.2387C9.74972 23.8735 10.0469 23.5762 10.4122 23.5762H12.1818C13.276 23.5762 14.1662 22.686 14.1662 21.5917C14.1662 20.4974 13.276 19.6072 12.1818 19.6072H4.8906C4.52532 19.6072 4.22812 19.31 4.22812 18.9447C4.22812 18.5794 4.52532 18.2822 4.8906 18.2822H9.84119C10.9354 18.2822 11.8257 17.392 11.8257 16.2977C11.8257 15.2035 10.9355 14.3133 9.84119 14.3133H5.92853C5.56324 14.3133 5.26605 14.0161 5.26605 13.6508C5.26605 13.2855 5.56324 12.9882 5.92853 12.9882H8.51268C9.60687 12.9882 10.4971 12.098 10.4971 11.0038C10.4971 9.90949 9.60695 9.0193 8.51268 9.0193H1.98455C1.61918 9.0193 1.32199 8.7221 1.32199 8.35682C1.32199 7.99154 1.61918 7.69434 1.98455 7.69434H17.5044V14.0552C17.5044 14.178 17.5387 14.2984 17.6033 14.4029C17.6679 14.5073 17.7603 14.5917 17.8702 14.6465C17.9801 14.7014 18.1031 14.7246 18.2254 14.7134C18.3477 14.7023 18.4645 14.6573 18.5627 14.5835L20.7055 12.9724L22.8484 14.5836C22.9466 14.6575 23.0634 14.7025 23.1857 14.7137C23.3081 14.7248 23.4311 14.7017 23.541 14.6468C23.6509 14.5919 23.7433 14.5075 23.8079 14.4031C23.8725 14.2986 23.9067 14.1782 23.9067 14.0553V7.69442H28.9724V24.9012H21.1904C20.7494 23.555 19.4818 22.5797 17.9902 22.5797C16.4985 22.5797 15.2309 23.5551 14.7899 24.9012H14.7896ZM15.9445 25.9472C15.9445 24.8193 16.862 23.9017 17.9899 23.9017C19.1178 23.9017 20.0353 24.8193 20.0353 25.9472C20.0353 27.0751 19.1178 27.9926 17.9899 27.9926C16.862 27.9926 15.9445 27.0751 15.9445 25.9472ZM19.3991 29.0044C20.4745 28.5067 21.2443 27.4584 21.3451 26.2232H31.3286C31.4294 27.4584 32.1992 28.5067 33.2745 29.0044H19.3991ZM34.6837 27.9926C33.5559 27.9926 32.6382 27.0751 32.6382 25.9472C32.6382 24.8193 33.5558 23.9017 34.6837 23.9017C35.8116 23.9017 36.7291 24.8193 36.7291 25.9472C36.7291 27.0751 35.8116 27.9926 34.6837 27.9926ZM38.8287 31.8295C38.8287 32.0048 38.759 32.1729 38.6351 32.2969C38.5111 32.4208 38.343 32.4905 38.1677 32.4905H33.2668C33.0915 32.4905 32.9234 32.4208 32.7995 32.2969C32.6755 32.1729 32.6059 32.0048 32.6059 31.8295C32.6059 31.6542 32.6755 31.4861 32.7995 31.3621C32.9234 31.2381 33.0915 31.1685 33.2668 31.1685H38.1677C38.343 31.1685 38.5111 31.2381 38.6351 31.3621C38.759 31.4861 38.8287 31.6542 38.8287 31.8295ZM26.4316 31.8295C26.4316 32.0048 26.362 32.1729 26.238 32.2969C26.114 32.4208 25.9459 32.4905 25.7706 32.4905H5.87796C5.70265 32.4905 5.53453 32.4208 5.41057 32.2969C5.28661 32.1729 5.21697 32.0048 5.21697 31.8295C5.21697 31.6542 5.28661 31.4861 5.41057 31.3621C5.53453 31.2381 5.70265 31.1685 5.87796 31.1685H25.7707C25.946 31.1685 26.1141 31.2381 26.2381 31.3621C26.362 31.4861 26.4317 31.6542 26.4317 31.8295H26.4316ZM5.25332 26.2231C6.34759 26.2231 7.23787 25.3328 7.23787 24.2386C7.23787 23.1443 6.34768 22.2541 5.25332 22.2541H3.99785C2.90358 22.2541 2.0133 23.1444 2.0133 24.2387C2.0133 25.3329 2.90349 26.2231 3.99785 26.2231H5.25332ZM3.33529 24.2386C3.33529 23.8733 3.63249 23.5761 3.99785 23.5761H5.25332C5.61869 23.5761 5.91588 23.8733 5.91588 24.2387C5.91588 24.604 5.61869 24.9011 5.25332 24.9011H3.99785C3.63249 24.9011 3.33529 24.6039 3.33529 24.2386Z" fill="#E5097F"/>
</svg>
