<svg width="42" height="42" viewBox="0 0 42 42" fill="none" xmlns="http://www.w3.org/2000/svg">
<path d="M35.8493 6.15073C31.8828 2.18434 26.6093 0 21 0C15.3907 0 10.1171 2.18434 6.15073 6.15073C2.18442 10.1171 0 15.3907 0 21C0 26.6093 2.18442 31.8829 6.15073 35.8493C10.1172 39.8158 15.3907 42 21 42C26.6093 42 31.8829 39.8157 35.8493 35.8493C39.8157 31.8829 42 26.6093 42 21C42 15.3907 39.8157 10.1171 35.8493 6.15073ZM21 40.8217C10.0703 40.8216 1.17835 31.9296 1.17835 21C1.17835 15.5316 3.40435 10.5733 6.9977 6.98359L13.7396 13.7255C13.7943 13.7803 13.8592 13.8238 13.9307 13.8534C14.0022 13.883 14.0789 13.8982 14.1563 13.8981C14.2728 13.8981 14.3867 13.8636 14.4836 13.7989C14.5805 13.7341 14.6561 13.6421 14.7007 13.5344C14.7452 13.4268 14.7569 13.3083 14.7342 13.194C14.7114 13.0797 14.6553 12.9747 14.5729 12.8923L7.85669 6.17627C11.3576 3.06877 15.9618 1.17827 20.9999 1.17827C31.9297 1.17827 40.8216 10.0703 40.8216 21C40.8216 26.0382 38.9311 30.6424 35.8236 34.1432L31.3784 29.6977C31.2679 29.5872 31.118 29.5251 30.9617 29.5251C30.8055 29.5251 30.6556 29.5872 30.5451 29.6977C30.4346 29.8082 30.3725 29.9581 30.3725 30.1143C30.3725 30.2706 30.4346 30.4205 30.5451 30.531L35.0163 35.0023C31.4267 38.5958 26.4684 40.8217 21 40.8217Z" fill="#447D39"/>
<path d="M30.739 24.5949C30.7374 24.4475 30.6807 24.3061 30.58 24.1985C30.4792 24.0909 30.3419 24.0249 30.1949 24.0136C30.1866 24.013 29.9879 23.9981 29.661 23.9981C28.4359 23.9981 25.3621 24.2083 23.2815 26.1557C22.5113 26.8766 21.9697 27.7454 21.5889 28.6164V24.2757C21.6429 24.2767 21.7009 24.2774 21.7655 24.2774C22.9906 24.2774 26.0645 24.067 28.145 22.1197C30.7544 19.6773 30.7407 15.5379 30.7389 15.363C30.7373 15.2156 30.6806 15.0742 30.5799 14.9666C30.4792 14.859 30.3418 14.793 30.1949 14.7817C30.1866 14.7811 29.988 14.7661 29.6611 14.7661C28.436 14.7661 25.362 14.9764 23.2815 16.9238C22.5113 17.6446 21.9697 18.5135 21.5889 19.3845V16.8819C22.106 16.364 24.6085 13.6857 24.5577 10.4108C24.5022 6.83704 21.4273 4.06588 21.2964 3.94962C21.1862 3.85179 21.0434 3.7988 20.896 3.8011C20.7487 3.8034 20.6076 3.86083 20.5005 3.96205C20.3733 4.08217 17.386 6.94758 17.4415 10.5214C17.4877 13.4898 19.6154 15.9027 20.4104 16.7023V19.3845C20.0296 18.5135 19.4879 17.6446 18.7178 16.9238C16.6371 14.9764 13.5632 14.7661 12.3382 14.7661C12.0113 14.7661 11.8127 14.7811 11.8044 14.7818C11.6574 14.7931 11.5201 14.859 11.4194 14.9666C11.3187 15.0742 11.2619 15.2156 11.2604 15.363C11.2585 15.5379 11.2448 19.6772 13.8543 22.1197C15.9348 24.0671 19.0087 24.2774 20.2338 24.2774C20.2984 24.2774 20.3564 24.2767 20.4104 24.2757V28.6164C20.0296 27.7453 19.4879 26.8766 18.7178 26.1557C16.6371 24.2083 13.5633 23.9981 12.3383 23.9981C12.0114 23.9981 11.8127 24.013 11.8044 24.0137C11.6574 24.025 11.5201 24.0909 11.4194 24.1985C11.3187 24.3061 11.2619 24.4475 11.2604 24.5949C11.2585 24.7699 11.2448 28.9091 13.8543 31.3516C15.9348 33.299 19.0087 33.5092 20.2338 33.5092C20.2984 33.5092 20.3564 33.5086 20.4104 33.5075V37.6098C20.4104 37.766 20.4725 37.9159 20.583 38.0264C20.6935 38.1369 20.8433 38.1989 20.9996 38.1989C21.1559 38.1989 21.3057 38.1369 21.4162 38.0264C21.5267 37.9159 21.5888 37.766 21.5888 37.6098V33.5075C21.6429 33.5085 21.7009 33.5092 21.7655 33.5092C22.9906 33.5092 26.0645 33.2988 28.145 31.3515C30.7544 28.9091 30.7407 24.7698 30.7389 24.5948L30.739 24.5949ZM24.0867 17.7841C25.7943 16.1857 28.3745 15.9599 29.5329 15.9453C29.4408 17.0837 29.0444 19.6638 27.3397 21.2594C25.6314 22.8584 23.0502 23.0837 21.8925 23.0982C21.9826 21.9617 22.3755 19.3857 24.0867 17.7841ZM14.6595 21.2594C12.9547 19.6637 12.5583 17.0833 12.4664 15.9453C13.6247 15.9599 16.2049 16.1857 17.9124 17.7841C19.6173 19.3798 20.0136 21.9601 20.1057 23.0982C18.9474 23.0836 16.3672 22.8579 14.6595 21.2594ZM14.6595 30.4914C12.9547 28.8956 12.5583 26.3152 12.4664 25.1773C13.6246 25.1919 16.2048 25.4175 17.9125 27.016C19.6173 28.6117 20.0136 31.1921 20.1056 32.33C18.9474 32.3154 16.3672 32.0898 14.6595 30.4914ZM20.919 5.23432C21.7007 6.06525 23.343 8.08645 23.3794 10.4291C23.4157 12.7629 21.8363 14.8395 21.0809 15.697C20.2992 14.8633 18.656 12.8368 18.6197 10.5031C18.5835 8.16844 20.1642 6.09112 20.919 5.23432ZM27.3397 30.4914C25.6314 32.0903 23.0502 32.3156 21.8925 32.3301C21.9826 31.1936 22.3755 28.6176 24.0867 27.0159C25.7944 25.4176 28.3746 25.1919 29.5329 25.1772C29.4408 26.3156 29.0444 28.8958 27.3397 30.4914H27.3397Z" fill="#447D39"/>
</svg>
