<svg width="512" height="448" viewBox="0 0 512 448" fill="none" xmlns="http://www.w3.org/2000/svg">
<path d="M116.314 325.548C74.1806 292.77 59.2793 242.028 43.5139 188.311C37.6366 168.3 31.5779 147.671 23.9726 128.183C65.6686 129.527 102.682 136.119 134.095 147.799C135.408 148.287 136.805 148.512 138.205 148.46C139.605 148.409 140.981 148.082 142.255 147.499C143.529 146.915 144.675 146.087 145.629 145.06C146.582 144.034 147.324 142.83 147.813 141.516C148.301 140.203 148.526 138.807 148.474 137.407C148.422 136.007 148.096 134.63 147.512 133.357C146.929 132.083 146.1 130.936 145.074 129.983C144.047 129.029 142.843 128.287 141.53 127.799C105.829 114.519 63.6846 107.404 16.1006 106.658C10.6926 106.658 5.6686 109.356 2.68194 113.89C-0.294063 118.391 -0.827396 124.023 1.2526 128.919C9.8606 149.452 16.5593 172.258 23.0339 194.327C39.0553 248.93 55.6419 305.378 103.205 342.38C104.31 343.242 105.575 343.877 106.926 344.249C108.277 344.622 109.689 344.724 111.079 344.551C112.47 344.377 113.813 343.932 115.032 343.239C116.25 342.546 117.32 341.62 118.181 340.514C119.917 338.281 120.696 335.451 120.346 332.645C119.996 329.838 118.545 327.286 116.314 325.548Z" fill="#0A504B"/>
<path d="M87.7806 176.46C86.8888 177.541 86.2186 178.787 85.8083 180.126C85.398 181.466 85.2557 182.873 85.3894 184.268C85.5231 185.663 85.9303 187.017 86.5877 188.255C87.245 189.492 88.1397 190.588 89.2206 191.479C94.8633 196.13 100.709 201.442 107.098 207.703C108.086 208.735 109.271 209.557 110.582 210.122C111.894 210.687 113.306 210.983 114.734 210.992C116.162 211.001 117.577 210.724 118.896 210.176C120.215 209.627 121.41 208.82 122.411 207.801C123.412 206.782 124.198 205.573 124.723 204.245C125.247 202.917 125.5 201.496 125.466 200.069C125.431 198.641 125.11 197.235 124.522 195.933C123.934 194.632 123.091 193.462 122.042 192.492C115.881 186.392 109.457 180.562 102.789 175.02C101.708 174.129 100.462 173.458 99.1227 173.048C97.783 172.638 96.3757 172.495 94.981 172.629C93.5863 172.763 92.2316 173.17 90.9943 173.827C89.7571 174.485 88.6614 175.379 87.7699 176.46H87.7806ZM509.306 7.11637C507.835 4.8956 505.829 3.08019 503.473 1.837C501.117 0.59381 498.487 -0.0372901 495.823 0.00170322C353.061 1.55904 246.522 42.7004 187.706 118.988C137.765 183.778 124.879 272.354 150.319 375.244C138.857 393.953 127.948 412.994 117.605 432.343C116.409 434.831 116.224 437.684 117.087 440.306C117.949 442.927 119.794 445.113 122.233 446.404C124.672 447.695 127.516 447.992 130.169 447.232C132.822 446.472 135.078 444.714 136.463 442.327C146.837 422.927 157.786 403.839 169.295 385.09C400.805 381.975 440.143 248.567 478.063 119.394C487.685 86.6257 497.626 52.7377 510.693 22.3057C512.837 17.3137 512.314 11.639 509.306 7.11637ZM457.605 113.378C421.039 237.9 386.341 355.671 182.767 363.415C226.853 293.815 284.623 214.764 339.493 156.642C341.435 154.584 342.48 151.838 342.398 149.01C342.316 146.181 341.113 143.501 339.055 141.559C336.997 139.617 334.252 138.572 331.423 138.654C328.595 138.736 325.915 139.938 323.973 141.996C268.911 200.311 210.991 279.33 166.415 349.356C149.093 261.943 162.106 187.127 204.602 131.991C258.181 62.4764 356.037 24.3324 487.919 21.4417C475.919 50.9564 466.607 82.6364 457.594 113.367L457.605 113.378Z" fill="#0A504B"/>
</svg>
