<svg width="46" height="46" viewBox="0 0 46 46" fill="none" xmlns="http://www.w3.org/2000/svg">
<path d="M42.3069 11.8305C41.8662 12.2713 41.4078 12.6292 40.9249 12.9135L33.0843 5.07246C33.3685 4.58993 33.7261 4.13156 34.1673 3.69045C35.0102 2.84747 35.0102 1.4757 34.1669 0.632365C33.3239 -0.210609 31.9521 -0.210968 31.1088 0.632365C27.5994 4.14181 27.5482 8.38389 28.1623 12.2141C23.7036 11.295 18.7747 10.904 14.8399 14.8384C13.0614 16.6172 12.0388 18.7065 11.7138 21.2259C11.6909 21.4034 11.7395 21.5827 11.8488 21.7243C11.9581 21.866 12.1192 21.9585 12.2967 21.9814C12.6652 22.0291 13.0045 21.7681 13.0519 21.3986C13.3376 19.1862 14.2342 17.3525 15.7942 15.7926C19.4193 12.1674 23.9991 12.6892 28.422 13.6484C28.554 14.3091 28.6708 14.8275 28.7997 15.3971C24.4051 14.3976 20.1489 13.6912 16.9393 16.9472C9.76462 24.1319 21.956 36.3893 13.9359 44.4092C13.619 44.7262 13.1031 44.7262 12.7862 44.4092C12.4691 44.0924 12.4691 43.5765 12.7862 43.2596C17.8717 38.1738 13.3278 30.8679 12.9716 23.8733C12.9523 23.5014 12.6382 23.2143 12.2634 23.2339C12.0846 23.243 11.9168 23.3227 11.7968 23.4555C11.6768 23.5883 11.6145 23.7634 11.6236 23.9421C11.6976 25.393 11.944 26.8468 12.2153 28.1608C8.38512 27.547 4.1433 27.5982 0.633948 31.1073C-0.211181 31.9519 -0.211451 33.3203 0.633948 34.1654C1.47899 35.0108 2.84699 35.0108 3.69239 34.1654C4.13315 33.7246 4.59142 33.3669 5.07405 33.0827L12.9151 40.9234C12.6304 41.4063 12.2728 41.8646 11.832 42.3054C10.9887 43.1483 10.9887 44.5205 11.832 45.3635C12.675 46.2068 14.0469 46.2068 14.8902 45.3635C18.3996 41.8541 18.4508 37.6119 17.8366 33.7818C22.926 34.8307 27.4738 34.8426 31.1591 31.1575C35.0937 27.2227 34.7021 22.2931 33.7829 17.8344C35.0632 18.0379 36.3491 18.1611 37.6437 18.1204C37.8225 18.1146 37.9918 18.038 38.1142 17.9075C38.2367 17.7771 38.3023 17.6033 38.2968 17.4245C38.2849 17.0522 37.9739 16.7584 37.6012 16.7713C36.3919 16.8093 35.0713 16.6959 33.4731 16.4141C33.3433 15.8445 33.2169 15.308 33.0747 14.691C36.8175 15.4445 40.3799 15.6659 43.2611 12.7847C43.5781 12.4678 44.0936 12.4678 44.4108 12.7847C44.4864 12.8602 44.5464 12.9498 44.5873 13.0484C44.6282 13.147 44.6493 13.2528 44.6493 13.3596C44.6493 13.4664 44.6282 13.5721 44.5873 13.6707C44.5464 13.7694 44.4864 13.859 44.4108 13.9344C43.1486 15.197 41.7226 16.0169 40.0522 16.4404C39.8799 16.4855 39.7324 16.5968 39.6419 16.7501C39.5513 16.9035 39.5251 17.0864 39.5688 17.259C39.6126 17.4316 39.7228 17.5799 39.8755 17.6716C40.0281 17.7633 40.2109 17.7909 40.3838 17.7484C42.2964 17.2634 43.9258 16.3281 45.365 14.8886C45.7735 14.4801 45.9985 13.9372 45.9985 13.3595C45.9985 11.4388 43.6612 10.4762 42.3069 11.8304V11.8305ZM2.73819 33.2111C2.66273 33.2867 2.57309 33.3467 2.47442 33.3876C2.37576 33.4285 2.26999 33.4496 2.16317 33.4496C2.05635 33.4496 1.95058 33.4285 1.85191 33.3876C1.75324 33.3467 1.66361 33.2867 1.58814 33.2111C1.51259 33.1357 1.45266 33.0461 1.41176 32.9474C1.37087 32.8488 1.34982 32.7431 1.34982 32.6363C1.34982 32.5295 1.37087 32.4238 1.41176 32.3251C1.45266 32.2265 1.51259 32.1369 1.58814 32.0615C3.77343 29.8762 6.33532 29.2189 8.88311 29.2189C10.1153 29.2189 11.3446 29.3725 12.5261 29.5818C12.655 30.1481 12.7862 30.705 12.9245 31.3052C9.18173 30.5514 5.61938 30.33 2.73819 33.2111ZM6.39946 32.4994C8.23041 31.9368 10.4202 32.152 13.2467 32.7507C13.8457 35.5771 14.0609 37.767 13.4979 39.5979L6.39946 32.4994ZM16.8614 29.1363C16.3469 26.9146 15.8917 24.8427 15.9118 22.9679L23.0295 30.0857C21.1548 30.1057 19.0828 29.6509 16.8614 29.1363ZM24.7604 29.9084L16.0889 21.237C16.3034 20.2137 16.727 19.2634 17.4436 18.3959L27.6012 28.5538C26.734 29.2707 25.784 29.6941 24.7604 29.9084ZM28.5558 27.6L18.3977 17.4421C19.2649 16.7254 20.2151 16.3018 21.2385 16.0874L29.9099 24.7588C29.6955 25.782 29.2722 26.7325 28.5557 27.6H28.5558ZM29.1379 16.8595C29.6524 19.0813 30.1073 21.1532 30.0875 23.028L22.9698 15.9102C24.8442 15.8902 26.9165 16.3451 29.1379 16.8595ZM30.2048 30.2032C26.5796 33.8284 22.0002 33.3066 17.577 32.3475C17.4817 31.873 17.3783 31.3841 17.1993 30.5988C21.6503 31.6113 25.8188 32.2896 29.0551 29.0532C36.182 21.9266 24.089 9.56063 32.0634 1.58656C32.3803 1.26969 32.8958 1.26933 33.213 1.58656C33.53 1.90343 33.53 2.41938 33.213 2.73625C26.0455 9.90382 38.2223 22.186 30.2048 30.2032ZM32.7527 13.2452C32.1536 10.4187 31.9384 8.22883 32.5014 6.39797L39.5998 13.4964C37.7689 14.0593 35.5791 13.8441 32.7527 13.2452Z" fill="#447D39"/>
</svg>
