<svg width="36" height="36" viewBox="0 0 36 36" fill="none" xmlns="http://www.w3.org/2000/svg">
<path d="M27.6737 18.9995C27.4443 21.2239 26.4586 23.3023 24.8813 24.8875C23.3041 26.4728 21.2307 27.469 19.0075 27.7097C18.9627 27.7092 18.9183 27.7176 18.8768 27.7345C18.8353 27.7514 18.7977 27.7764 18.766 27.808C18.7343 27.8397 18.7093 27.8774 18.6925 27.9188C18.6756 27.9603 18.6671 28.0047 18.6677 28.0495V35.3207C18.6677 35.5009 18.5961 35.6738 18.4686 35.8012C18.3412 35.9286 18.1684 36.0002 17.9881 36.0002C17.8079 36.0002 17.6351 35.9286 17.5076 35.8012C17.3802 35.6738 17.3086 35.5009 17.3086 35.3207V32.6824C17.3021 32.5945 17.2642 32.5118 17.2019 32.4494C17.1395 32.387 17.0568 32.3491 16.9688 32.3427C13.9464 32.0981 11.0796 30.9008 8.78099 28.9233C6.48235 26.9457 4.87043 24.2899 4.17724 21.3379C4.15144 21.2505 4.1435 21.1587 4.15391 21.0681C4.16431 20.9775 4.19284 20.8899 4.23779 20.8106C4.28275 20.7313 4.34321 20.6618 4.41558 20.6063C4.48795 20.5508 4.57075 20.5105 4.65904 20.4877C4.74732 20.4649 4.8393 20.4601 4.92949 20.4735C5.01967 20.487 5.10622 20.5185 5.18398 20.5662C5.26174 20.6138 5.32912 20.6766 5.3821 20.7508C5.43508 20.825 5.47258 20.9091 5.49238 20.9981C6.10863 23.6479 7.54559 26.0354 9.59843 27.8205C11.6513 29.6056 14.2152 30.6972 16.9248 30.9396C17.0128 30.9836 17.0967 30.9396 17.1807 30.8556C17.225 30.8306 17.2609 30.7929 17.2837 30.7473C17.3065 30.7017 17.3152 30.6503 17.3086 30.5998V28.0495C17.3091 28.0047 17.3007 27.9603 17.2838 27.9188C17.2669 27.8774 17.2419 27.8397 17.2103 27.808C17.1786 27.7764 17.1409 27.7514 17.0995 27.7345C17.058 27.7176 17.0136 27.7092 16.9688 27.7097C14.7561 27.4632 12.6914 26.4773 11.1087 24.9116C9.52626 23.3212 8.53839 21.2354 8.31052 19.0035C8.29755 18.9218 8.25654 18.8472 8.19453 18.7925C8.13252 18.7378 8.05339 18.7064 7.97074 18.7037H0.699538C0.514009 18.7037 0.336079 18.63 0.20489 18.4988C0.0737012 18.3676 0 18.1896 0 18.0041C0 17.8186 0.0737012 17.6407 0.20489 17.5095C0.336079 17.3783 0.514009 17.3046 0.699538 17.3046H3.46172C3.54414 17.3011 3.62288 17.2695 3.68473 17.2149C3.74659 17.1603 3.78781 17.0861 3.80149 17.0048C3.98288 13.9869 5.10417 11.1015 7.00816 8.75305C8.91215 6.40461 11.5034 4.71091 14.4185 3.90942C14.595 3.87591 14.7777 3.91122 14.929 4.0081C15.0803 4.10499 15.1889 4.2561 15.2323 4.43045C15.2758 4.60481 15.2509 4.78918 15.1627 4.94576C15.0746 5.10233 14.9299 5.21925 14.7583 5.27252C12.1502 5.97579 9.82692 7.47593 8.11273 9.5635C6.39853 11.6511 5.37903 14.2218 5.19657 16.9168C5.1853 16.9665 5.18575 17.0181 5.19788 17.0675C5.21001 17.117 5.2335 17.1629 5.26647 17.2017C5.29944 17.2405 5.341 17.2711 5.38784 17.291C5.43469 17.3109 5.48553 17.3197 5.53635 17.3166H7.95475C8.0374 17.3139 8.11653 17.2825 8.17854 17.2278C8.24055 17.173 8.28156 17.0984 8.29453 17.0168C8.52088 14.7882 9.50618 12.7052 11.0854 11.1165C12.6645 9.52791 14.7417 8.53019 16.9688 8.29053C17.0136 8.29107 17.058 8.28264 17.0995 8.26576C17.1409 8.24887 17.1786 8.22386 17.2103 8.19221C17.2419 8.16055 17.2669 8.12288 17.2838 8.08141C17.3007 8.03995 17.3091 7.99552 17.3086 7.95075V0.679552C17.3086 0.499323 17.3802 0.326477 17.5076 0.199036C17.6351 0.0715955 17.8079 0 17.9881 0C18.1684 0 18.3412 0.0715955 18.4686 0.199036C18.5961 0.326477 18.6677 0.499323 18.6677 0.679552V8.92611C18.6722 9.02233 18.6567 9.11845 18.6219 9.2083C18.5872 9.29815 18.534 9.37974 18.4659 9.44786C18.3978 9.51598 18.3162 9.56911 18.2263 9.60386C18.1365 9.6386 18.0404 9.6542 17.9442 9.64963C10.553 9.64963 6.85947 18.6997 12.084 23.9282C17.3086 29.1568 26.2267 25.4152 26.3546 18.0001C26.3535 17.9106 26.3704 17.8217 26.4042 17.7388C26.4379 17.6559 26.4879 17.5805 26.5513 17.5172C26.6146 17.4539 26.6899 17.4039 26.7728 17.3701C26.8558 17.3363 26.9446 17.3195 27.0342 17.3206H35.2767C35.4622 17.3206 35.6402 17.3943 35.7714 17.5255C35.9026 17.6567 35.9763 17.8346 35.9763 18.0201C35.9763 18.2056 35.9026 18.3836 35.7714 18.5148C35.6402 18.6459 35.4622 18.7196 35.2767 18.7196H32.5585C32.4742 18.7163 32.3918 18.7455 32.3285 18.8014C32.2652 18.8572 32.2259 18.9353 32.2187 19.0194C31.9981 22.0561 30.8237 24.9455 28.8632 27.275C26.9027 29.6045 24.2564 31.255 21.3019 31.9909C20.4105 32.2028 20.1027 30.8436 21.0021 30.6318C23.6406 29.9758 26.0067 28.5086 27.7673 26.4368C29.5278 24.365 30.594 21.7931 30.8157 19.0834C30.8269 19.0338 30.8265 18.9822 30.8144 18.9327C30.8022 18.8833 30.7787 18.8373 30.7458 18.7985C30.7128 18.7598 30.6712 18.7292 30.6244 18.7092C30.5776 18.6893 30.5267 18.6805 30.4759 18.6837H28.0135C27.9309 18.6864 27.8517 18.7178 27.7897 18.7725C27.7277 18.8272 27.6867 18.9018 27.6737 18.9835V18.9995ZM33.1781 7.69492L28.2653 12.5797C28.1453 12.71 27.9786 12.7876 27.8017 12.7956H24.5278C24.4384 12.8034 24.3522 12.8321 24.276 12.8795L18.4558 18.7436C18.325 18.8659 18.1518 18.9326 17.9727 18.9298C17.7936 18.9269 17.6226 18.8547 17.4957 18.7283C17.3688 18.6019 17.2959 18.4312 17.2923 18.2522C17.2887 18.0731 17.3547 17.8996 17.4765 17.7683L23.2966 11.9001C23.3358 11.8805 23.3686 11.8502 23.3912 11.8127C23.4139 11.7752 23.4254 11.7321 23.4245 11.6883V8.40645C23.4237 8.31191 23.4421 8.21818 23.4785 8.13092C23.5149 8.04367 23.5686 7.9647 23.6364 7.89879L28.5212 3.01801C28.6155 2.91603 28.7383 2.84483 28.8737 2.81367C29.0091 2.78251 29.1507 2.79284 29.2801 2.84331C29.4095 2.89378 29.5207 2.98206 29.5993 3.09664C29.6778 3.21122 29.72 3.34679 29.7204 3.4857V6.16393C29.726 6.25219 29.7636 6.33537 29.8262 6.39791C29.8887 6.46045 29.9719 6.49806 30.0602 6.50371H32.6944C32.8349 6.50002 32.9733 6.53875 33.0915 6.61484C33.2096 6.69094 33.3022 6.80086 33.357 6.9303C33.4117 7.05973 33.4263 7.20267 33.3987 7.34049C33.371 7.4783 33.3025 7.6046 33.2021 7.70292L33.1781 7.69492ZM27.5818 11.2925L30.4279 8.44643C30.4774 8.40074 30.5123 8.34154 30.5284 8.27617C30.5445 8.2108 30.5411 8.14215 30.5185 8.07871C30.496 8.01528 30.4553 7.95987 30.4015 7.91936C30.3477 7.87885 30.2833 7.85502 30.2161 7.85082H29.0169C28.8312 7.85516 28.6513 7.78634 28.5159 7.65921C28.3806 7.53207 28.3006 7.35682 28.2933 7.17127V6.00804C28.293 5.93919 28.2725 5.87196 28.2343 5.81467C28.1961 5.75738 28.142 5.71255 28.0786 5.68574C28.0151 5.65893 27.9453 5.65132 27.8776 5.66384C27.8099 5.67637 27.7473 5.70848 27.6977 5.7562L24.8996 8.60232C24.8249 8.6674 24.7789 8.75935 24.7717 8.85815V11.0687C24.7711 11.1135 24.7795 11.1579 24.7964 11.1994C24.8133 11.2408 24.8383 11.2785 24.87 11.3101C24.9016 11.3418 24.9393 11.3668 24.9808 11.3837C25.0222 11.4006 25.0667 11.409 25.1114 11.4085H27.3619C27.4499 11.4085 27.5338 11.4085 27.5738 11.3205L27.5818 11.2925ZM23.7603 18.0081C23.7619 19.151 23.4244 20.2688 22.7905 21.2198C22.1566 22.1708 21.2548 22.9124 20.1992 23.3507C19.1437 23.789 17.9818 23.9043 16.8607 23.682C15.7396 23.4597 14.7096 22.9098 13.9012 22.1019C13.0927 21.294 12.5421 20.2644 12.319 19.1435C12.096 18.0225 12.2105 16.8606 12.648 15.8047C13.0856 14.7489 13.8265 13.8466 14.7771 13.212C15.7277 12.5774 16.8452 12.2391 17.9881 12.2399C18.1599 12.2531 18.3203 12.3306 18.4374 12.457C18.5544 12.5833 18.6194 12.7492 18.6194 12.9215C18.6194 13.0937 18.5544 13.2596 18.4374 13.386C18.3203 13.5123 18.1599 13.5899 17.9881 13.603C16.8219 13.603 15.7035 14.0663 14.8789 14.8909C14.0543 15.7155 13.591 16.8339 13.591 18.0001C13.591 19.1663 14.0543 20.2847 14.8789 21.1093C15.7035 21.934 16.8219 22.3972 17.9881 22.3972C20.5384 22.3972 22.2373 20.4865 22.3612 18.0001C22.3573 17.9037 22.3732 17.8074 22.408 17.7174C22.4428 17.6274 22.4957 17.5455 22.5635 17.4768C22.6313 17.4081 22.7126 17.3541 22.8021 17.3181C22.8917 17.2822 22.9877 17.265 23.0842 17.2678C23.1807 17.2705 23.2756 17.2931 23.363 17.3341C23.4504 17.3751 23.5284 17.4336 23.5922 17.5061C23.656 17.5785 23.7042 17.6633 23.7338 17.7552C23.7634 17.8471 23.7738 17.944 23.7643 18.0401L23.7603 18.0081Z" fill="#E5097F"/>
</svg>
