<svg width="44" height="34" viewBox="0 0 44 34" fill="none" xmlns="http://www.w3.org/2000/svg">
<path d="M38.7364 23.8134V29.9183C38.7364 31.4168 37.5216 32.6316 36.0231 32.6316H3.46329C1.9648 32.6316 0.75 31.4168 0.75 29.9183V10.9251C0.75 9.42659 1.9648 8.21179 3.46329 8.21179H36.0231C37.5216 8.21179 38.7364 9.42659 38.7364 10.9251V21.1" stroke="#E5097F" stroke-width="1.5" stroke-miterlimit="10" stroke-linecap="round" stroke-linejoin="round"/>
<path d="M3.40967 5.49832C3.85471 4.95994 4.49082 4.61467 5.18475 4.53485L37.5259 0.768591C39.0144 0.595265 40.3616 1.66133 40.5349 3.14985L42.7319 22.0155C42.9053 23.504 41.8392 24.8512 40.3507 25.0245L38.7365 25.2124M4.82002 24.4915H10.2467M4.82002 27.8832H18.3865M12.96 24.4915H18.3865M21.0999 24.4915H26.5265M29.2399 24.4915H34.6664M7.53331 18.3866H8.88999M10.2467 21.0999H6.1767C5.42746 21.0999 4.82002 20.4925 4.82002 19.7432V17.0299C4.82002 16.2807 5.42737 15.6732 6.1767 15.6732H10.2467C10.9959 15.6732 11.6034 16.2806 11.6034 17.0299V19.7432C11.6033 20.4925 10.9959 21.0999 10.2467 21.0999Z" stroke="#E5097F" stroke-width="1.5" stroke-miterlimit="10" stroke-linecap="round" stroke-linejoin="round"/>
<path d="M32.5886 19.065C33.0461 18.1454 33.3098 17.1111 33.3098 16.0125C33.3098 14.9139 33.0461 13.8795 32.5886 12.96M30.1559 17.84C30.4312 17.2886 30.5965 16.6719 30.5965 16.0125C30.5965 15.3531 30.4312 14.7363 30.1559 14.1849M27.7329 16.6199C27.8261 16.4369 27.8832 16.2325 27.8832 16.0125C27.8832 15.7923 27.8261 15.588 27.7329 15.405" stroke="#E5097F" stroke-width="1.5" stroke-miterlimit="10" stroke-linecap="round" stroke-linejoin="round"/>
</svg>
