<svg width="36" height="32" viewBox="0 0 36 32" fill="none" xmlns="http://www.w3.org/2000/svg">
<path d="M35.9767 22.4033L33.4817 9.87961C33.4191 9.56493 33.2371 9.29324 32.9693 9.11444C32.7015 8.93571 32.3806 8.87162 32.066 8.93437L28.8556 9.57397H28.8555C28.2046 9.70371 27.7805 10.3387 27.9102 10.9896L27.941 11.1442C26.0167 11.7825 23.678 11.9663 20.7683 9.56564C19.4429 8.47216 17.7156 8.43616 16.4701 9.47592L15.1709 10.5606H8.09589C8.01683 10.08 7.64964 9.67463 7.14451 9.5739L3.93396 8.9343C3.61914 8.87155 3.29853 8.93564 3.03072 9.11437C2.76291 9.29317 2.58094 9.56493 2.51825 9.87954L0.0233268 22.4033C-0.106343 23.0542 0.317749 23.6892 0.968639 23.8189L4.17911 24.4585C4.3341 24.4897 4.49371 24.4898 4.64874 24.4589C4.80377 24.428 4.95115 24.3667 5.08236 24.2785C5.35017 24.0997 5.53221 23.828 5.59489 23.5133L5.61007 23.4371L13.2254 31.0523C13.6771 31.504 14.2796 31.7527 14.9218 31.7527C15.564 31.7527 16.1666 31.504 16.6181 31.0524C16.9401 30.7303 17.1591 30.3317 17.2583 29.8967L18.3168 30.9552C19.2523 31.8906 20.7743 31.8905 21.7097 30.9551C22.0276 30.6378 22.2495 30.2373 22.3499 29.7995C22.7988 30.2364 23.3914 30.4765 24.0225 30.4765C24.6648 30.4765 25.2672 30.2277 25.7189 29.7759C26.2389 29.2559 26.4698 28.5548 26.4116 27.8737C26.4794 27.8794 26.5478 27.8823 26.6167 27.8823C27.2589 27.8823 27.8613 27.6334 28.313 27.1818C28.9461 26.5489 29.1623 25.6033 28.9014 24.7637L30.3629 23.3023L30.405 23.5134C30.4676 23.828 30.6497 24.0997 30.9175 24.2786C31.0487 24.3668 31.1961 24.4281 31.3511 24.459C31.5061 24.4898 31.6658 24.4897 31.8207 24.4586L35.0312 23.819C35.6823 23.6892 36.1063 23.0542 35.9767 22.4033ZM4.45518 23.3392C4.44722 23.3447 4.43821 23.3486 4.4287 23.3506C4.4192 23.3527 4.40938 23.3527 4.39984 23.3509L1.18937 22.7113C1.1703 22.707 1.15361 22.6955 1.14274 22.6793C1.13188 22.663 1.12767 22.6432 1.13099 22.624L3.62592 10.1003C3.63072 10.0763 3.64596 10.0617 3.65789 10.0537C3.66749 10.0473 3.68168 10.0406 3.69933 10.0406C3.70402 10.0406 3.70871 10.0411 3.71331 10.042L6.92378 10.6816C6.9626 10.6894 6.98992 10.7302 6.98216 10.769L4.48723 23.2926C4.48527 23.3021 4.48143 23.3111 4.47592 23.3191C4.47042 23.3271 4.46337 23.3339 4.45518 23.3392ZM27.5146 26.383C27.2762 26.6214 26.9573 26.7528 26.6168 26.7528C26.2763 26.7528 25.9574 26.6215 25.719 26.383L20.2569 20.921C20.2046 20.8681 20.1423 20.826 20.0737 20.7972C20.005 20.7684 19.9314 20.7534 19.8569 20.7532C19.7825 20.753 19.7087 20.7675 19.6399 20.7958C19.5711 20.8242 19.5085 20.8659 19.4559 20.9186C19.4032 20.9712 19.3615 21.0337 19.3331 21.1026C19.3047 21.1714 19.2902 21.2451 19.2905 21.3196C19.2907 21.394 19.3056 21.4677 19.3344 21.5363C19.3632 21.605 19.4053 21.6673 19.4583 21.7196L24.9204 27.1816C25.4154 27.6766 25.4154 28.4821 24.9204 28.9772C24.682 29.2157 24.3631 29.347 24.0225 29.347C23.682 29.347 23.3631 29.2157 23.1247 28.9773L17.3531 23.2058C17.1327 22.9852 16.7752 22.9854 16.5546 23.2058C16.5021 23.2583 16.4605 23.3205 16.4322 23.389C16.4038 23.4575 16.3892 23.531 16.3892 23.6051C16.3892 23.6793 16.4038 23.7527 16.4322 23.8212C16.4606 23.8897 16.5022 23.952 16.5546 24.0044L20.9107 28.3604L20.911 28.3608H20.9111C21.4061 28.8557 21.4061 29.6612 20.911 30.1563C20.4159 30.6515 19.6103 30.6514 19.1154 30.1564L14.4496 25.4906C14.3435 25.3858 14.2002 25.3272 14.051 25.3276C13.9018 25.3281 13.7589 25.3875 13.6534 25.493C13.5479 25.5985 13.4884 25.7414 13.488 25.8906C13.4875 26.0397 13.5461 26.183 13.6509 26.2892L15.8197 28.4578C16.0581 28.6962 16.1894 29.0151 16.1894 29.3556C16.1894 29.6962 16.0581 30.015 15.8195 30.2535C15.5812 30.4918 15.2624 30.6231 14.9218 30.6231C14.5812 30.6231 14.2624 30.4918 14.024 30.2535L5.87541 22.1051L7.95027 11.6901H13.8183L12.1652 13.0703C11.4495 13.6677 11.1421 14.4826 11.3218 15.3057L12.6277 21.2898C12.6438 21.3635 12.6745 21.4332 12.718 21.4948C12.7615 21.5565 12.8168 21.6088 12.8809 21.6487C12.9449 21.6885 13.0163 21.7152 13.0907 21.727C13.1652 21.7389 13.2414 21.7357 13.3146 21.7177C14.8828 21.3312 15.9314 20.5754 16.5203 19.407C17.0293 18.3972 17.1304 17.2482 17.2374 16.0319C17.251 15.8773 17.2648 15.7218 17.2794 15.5659C17.2811 15.5527 17.2833 15.5434 17.2851 15.5372C17.4798 15.4551 18.4383 15.6449 19.9063 16.9791L27.7702 24.9576C27.9863 25.435 27.8865 26.0113 27.5146 26.383ZM28.2412 23.8267L20.6998 16.1753C20.6927 16.1681 20.6854 16.1611 20.6779 16.1543C19.1725 14.7828 17.7553 14.1574 16.8856 14.4817C16.4765 14.6343 16.2109 14.983 16.1571 15.4383C16.1565 15.4427 16.156 15.4472 16.1556 15.4517C16.1404 15.6128 16.1263 15.7733 16.1123 15.9329C15.9292 18.0137 15.7816 19.6893 13.6017 20.4563L12.4252 15.065C12.3062 14.5201 12.6647 14.1246 12.8889 13.9374L17.1939 10.343C18.009 9.66256 19.1566 9.70032 20.0496 10.437C23.3208 13.1359 26.0594 12.93 28.1632 12.2598L30.0977 21.9705L28.2412 23.8267ZM34.8106 22.7113L31.6002 23.3509C31.5906 23.3527 31.5808 23.3527 31.5713 23.3507C31.5618 23.3486 31.5528 23.3447 31.5448 23.3392C31.5366 23.3339 31.5296 23.3271 31.5241 23.3191C31.5186 23.3111 31.5147 23.3021 31.5128 23.2926L29.0178 10.769C29.0145 10.7497 29.0187 10.7299 29.0295 10.7136C29.0404 10.6973 29.0571 10.6859 29.0761 10.6816L32.2867 10.042C32.3108 10.0371 32.3301 10.0457 32.3421 10.0537C32.354 10.0617 32.3693 10.0762 32.3741 10.1003L34.869 22.624C34.8768 22.6628 34.8495 22.7036 34.8106 22.7113ZM17.4353 4.51868V0.564703C17.4353 0.414934 17.4948 0.2713 17.6007 0.165398C17.7066 0.0594954 17.8502 0 18 0C18.1498 0 18.2934 0.0594954 18.3993 0.165398C18.5052 0.2713 18.5647 0.414934 18.5647 0.564703V4.51868C18.5647 4.66845 18.5052 4.81208 18.3993 4.91798C18.2934 5.02389 18.1498 5.08338 18 5.08338C17.8502 5.08338 17.7066 5.02389 17.6007 4.91798C17.4948 4.81208 17.4353 4.66845 17.4353 4.51868ZM12.3473 2.23065C12.2736 2.10101 12.2541 1.94749 12.2932 1.80358C12.3323 1.65967 12.4267 1.53706 12.5558 1.4625C12.6849 1.38793 12.8383 1.36748 12.9825 1.40559C13.1267 1.44371 13.2499 1.5373 13.3253 1.66594L15.3023 5.09016C15.3519 5.17596 15.378 5.2733 15.378 5.37239C15.3781 5.47147 15.352 5.56882 15.3025 5.65466C15.253 5.7405 15.1818 5.81181 15.0961 5.86142C15.0103 5.91102 14.913 5.93719 14.8139 5.93728C14.7146 5.93739 14.6171 5.91135 14.5312 5.86176C14.4452 5.81218 14.3739 5.74082 14.3243 5.65486L12.3473 2.23065ZM8.56714 5.44606C8.6042 5.38182 8.65355 5.32552 8.71238 5.28036C8.77121 5.2352 8.83837 5.20208 8.91 5.18288C8.98164 5.16369 9.05636 5.1588 9.12988 5.16849C9.20341 5.17819 9.27431 5.20228 9.33852 5.23938L12.7628 7.21633C12.8705 7.2785 12.9547 7.3745 13.0023 7.48941C13.0499 7.60433 13.0582 7.73174 13.0259 7.85186C12.9937 7.97198 12.9227 8.0781 12.824 8.15373C12.7252 8.22937 12.6043 8.27029 12.4799 8.27014C12.3809 8.27012 12.2837 8.24399 12.1981 8.1944L8.77382 6.21745C8.64412 6.14256 8.54948 6.01922 8.51072 5.87456C8.47196 5.7299 8.49226 5.57576 8.56714 5.44606ZM20.6977 5.09023L22.6747 1.66601C22.7118 1.60179 22.7612 1.54549 22.82 1.50035C22.8788 1.4552 22.946 1.42208 23.0176 1.40289C23.0893 1.3837 23.164 1.3788 23.2375 1.38849C23.311 1.39817 23.3819 1.42225 23.4461 1.45933C23.5758 1.53422 23.6705 1.65756 23.7092 1.80222C23.748 1.94688 23.7277 2.10102 23.6528 2.23072L21.6758 5.65493C21.6387 5.71917 21.5894 5.77548 21.5305 5.82064C21.4717 5.8658 21.4046 5.89892 21.3329 5.91811C21.2613 5.93731 21.1866 5.94219 21.113 5.9325C21.0395 5.92281 20.9686 5.89872 20.9044 5.86161C20.8402 5.82455 20.7839 5.77519 20.7387 5.71636C20.6936 5.65753 20.6604 5.59037 20.6413 5.51874C20.6221 5.44711 20.6172 5.37239 20.6269 5.29887C20.6365 5.22534 20.6606 5.15445 20.6977 5.09023ZM23.2373 7.21633L26.6615 5.23938C26.7911 5.16568 26.9446 5.14624 27.0885 5.18531C27.2325 5.22438 27.3551 5.31879 27.4296 5.44793C27.5042 5.57707 27.5246 5.73046 27.4865 5.87463C27.4484 6.01879 27.3548 6.14203 27.2262 6.21745L23.802 8.1944C23.7378 8.23151 23.6669 8.25559 23.5933 8.26529C23.5198 8.27498 23.4451 8.27009 23.3734 8.2509C23.3018 8.2317 23.2347 8.19858 23.1758 8.15342C23.117 8.10827 23.0676 8.05196 23.0306 7.98772C22.9557 7.85802 22.9354 7.70389 22.9742 7.55922C23.0129 7.41456 23.1076 7.29122 23.2373 7.21633Z" fill="#E5097F"/>
</svg>
