<svg width="35" height="38" viewBox="0 0 35 38" fill="none" xmlns="http://www.w3.org/2000/svg">
<path d="M19.8721 37.3488H3.6371C2.67273 37.3478 1.74818 36.9642 1.06631 36.2822C0.384441 35.6003 0.000954931 34.6757 0 33.7113V12.861C0.00107429 11.8967 0.384613 10.9722 1.06647 10.2903C1.74833 9.60849 2.67281 9.22495 3.6371 9.22388H19.8721C20.8364 9.22495 21.7609 9.60849 22.4428 10.2903C23.1246 10.9722 23.5082 11.8967 23.5092 12.861V33.7104C23.5085 34.6749 23.1252 35.5997 22.4433 36.2819C21.7614 36.964 20.8367 37.3478 19.8721 37.3488ZM3.6371 10.6679C3.05572 10.6687 2.49838 10.9001 2.08728 11.3112C1.67618 11.7223 1.44485 12.2796 1.44402 12.861V33.7104C1.44438 34.2923 1.6756 34.8503 2.08693 35.2619C2.49827 35.6734 3.05611 35.905 3.638 35.9057H19.8731C20.4548 35.905 21.0125 35.6736 21.4238 35.2622C21.8351 34.8508 22.0664 34.293 22.067 33.7113V12.861C22.0664 12.2793 21.8351 11.7216 21.4238 11.3103C21.0124 10.8989 20.4547 10.6676 19.8731 10.667L3.6371 10.6679Z" fill="#447D39"/>
<path d="M6.16345 10.6669C5.97208 10.6669 5.78855 10.5909 5.65323 10.4556C5.51792 10.3203 5.44189 10.1367 5.44189 9.94535V6.20227C5.44189 6.0109 5.51792 5.82737 5.65323 5.69205C5.78855 5.55673 5.97208 5.48071 6.16345 5.48071C6.35482 5.48071 6.53835 5.55673 6.67367 5.69205C6.80899 5.82737 6.88501 6.0109 6.88501 6.20227V9.94535C6.88501 10.1367 6.80899 10.3203 6.67367 10.4556C6.53835 10.5909 6.35482 10.6669 6.16345 10.6669ZM17.3467 10.6669C17.1553 10.6669 16.9718 10.5909 16.8365 10.4556C16.7012 10.3203 16.6251 10.1367 16.6251 9.94535V6.20227C16.6251 6.0109 16.7012 5.82737 16.8365 5.69205C16.9718 5.55673 17.1553 5.48071 17.3467 5.48071C17.5381 5.48071 17.7216 5.55673 17.8569 5.69205C17.9922 5.82737 18.0683 6.0109 18.0683 6.20227V9.94535C18.0683 10.1367 17.9922 10.3203 17.8569 10.4556C17.7216 10.5909 17.5381 10.6669 17.3467 10.6669Z" fill="#447D39"/>
<path d="M18.7443 6.92421H4.76412C4.57275 6.92421 4.38922 6.84819 4.2539 6.71287C4.11859 6.57755 4.04256 6.39402 4.04256 6.20265V0.895142C4.04256 0.703773 4.11859 0.520242 4.2539 0.384923C4.38922 0.249605 4.57275 0.173584 4.76412 0.173584H18.7443C18.9357 0.173584 19.1192 0.249605 19.2545 0.384923C19.3898 0.520242 19.4659 0.703773 19.4659 0.895142V6.20265C19.4659 6.29741 19.4472 6.39123 19.4109 6.47878C19.3747 6.56632 19.3215 6.64586 19.2545 6.71287C19.1875 6.77987 19.108 6.83302 19.0204 6.86928C18.9329 6.90554 18.8391 6.92421 18.7443 6.92421ZM5.48568 5.48109H18.0227V1.6167H5.48568V5.48109ZM22.7882 31.3999H0.722046C0.530677 31.3999 0.347146 31.3239 0.211828 31.1886C0.0765095 31.0532 0.000488281 30.8697 0.000488281 30.6783C0.000488281 30.487 0.0765095 30.3034 0.211828 30.1681C0.347146 30.0328 0.530677 29.9568 0.722046 29.9568H22.7882C22.9795 29.9568 23.1631 30.0328 23.2984 30.1681C23.4337 30.3034 23.5097 30.487 23.5097 30.6783C23.5097 30.8697 23.4337 31.0532 23.2984 31.1886C23.1631 31.3239 22.9795 31.3999 22.7882 31.3999ZM22.7882 16.6147H0.722046C0.530677 16.6147 0.347146 16.5387 0.211828 16.4034C0.0765095 16.2681 0.000488281 16.0845 0.000488281 15.8932C0.000488281 15.7018 0.0765095 15.5183 0.211828 15.3829C0.347146 15.2476 0.530677 15.1716 0.722046 15.1716H22.7882C22.9795 15.1716 23.1631 15.2476 23.2984 15.3829C23.4337 15.5183 23.5097 15.7018 23.5097 15.8932C23.5097 16.0845 23.4337 16.2681 23.2984 16.4034C23.1631 16.5387 22.9795 16.6147 22.7882 16.6147ZM13.8625 28.3229C13.4773 28.3238 13.0958 28.2486 12.7397 28.1015C12.3837 27.9545 12.0603 27.7385 11.788 27.466L7.57504 23.2513C7.30282 22.979 7.08689 22.6559 6.93957 22.3002C6.79224 21.9445 6.71642 21.5633 6.71642 21.1784C6.71642 20.7934 6.79224 20.4122 6.93957 20.0565C7.08689 19.7008 7.30282 19.3777 7.57504 19.1055C7.84726 18.8332 8.17043 18.6173 8.52609 18.47C8.88176 18.3227 9.26297 18.2468 9.64794 18.2468C10.0329 18.2468 10.4141 18.3227 10.7698 18.47C11.1255 18.6173 11.4486 18.8332 11.7208 19.1055L15.9352 23.3198C16.3449 23.7299 16.6238 24.2523 16.7367 24.8209C16.8495 25.3895 16.7913 25.9788 16.5692 26.5143C16.3472 27.0498 15.9714 27.5075 15.4893 27.8294C15.0071 28.1513 14.4404 28.323 13.8607 28.3229H13.8625ZM9.64771 19.6908C9.35353 19.691 9.06599 19.7783 8.82142 19.9419C8.57686 20.1054 8.38624 20.3377 8.27366 20.6095C8.16107 20.8813 8.13156 21.1803 8.18886 21.4689C8.24616 21.7575 8.3877 22.0225 8.59559 22.2307L12.8099 26.4455C13.0891 26.7246 13.4677 26.8814 13.8624 26.8813C14.2572 26.8813 14.6358 26.7244 14.9149 26.4453C15.194 26.1661 15.3507 25.7875 15.3507 25.3928C15.3506 24.998 15.1938 24.6195 14.9146 24.3404L10.6985 20.126C10.5606 19.9879 10.3968 19.8784 10.2165 19.8037C10.0361 19.7291 9.84287 19.6907 9.64771 19.6908Z" fill="#447D39"/>
<path d="M10.1929 25.5698C10.0502 25.5698 9.91066 25.5275 9.792 25.4483C9.67333 25.369 9.58083 25.2564 9.52618 25.1245C9.47154 24.9927 9.45722 24.8476 9.48502 24.7077C9.51282 24.5677 9.58149 24.4391 9.68236 24.3382L12.8076 21.2129C12.8746 21.1459 12.9542 21.0928 13.0417 21.0565C13.1293 21.0202 13.2231 21.0016 13.3179 21.0016C13.4127 21.0016 13.5065 21.0202 13.594 21.0565C13.6816 21.0928 13.7612 21.1459 13.8282 21.2129C13.8952 21.28 13.9483 21.3595 13.9846 21.4471C14.0209 21.5346 14.0395 21.6285 14.0395 21.7232C14.0395 21.818 14.0209 21.9118 13.9846 21.9994C13.9483 22.0869 13.8952 22.1665 13.8282 22.2335L10.7029 25.3587C10.5676 25.4939 10.3841 25.5698 10.1929 25.5698ZM33.3567 25.7457H26.1925C26.0011 25.7457 25.8176 25.6697 25.6823 25.5343C25.547 25.399 25.4709 25.2155 25.4709 25.0241V7.11145C25.4709 6.92008 25.547 6.73655 25.6823 6.60123C25.8176 6.46591 26.0011 6.38989 26.1925 6.38989H33.3567C33.548 6.38989 33.7316 6.46591 33.8669 6.60123C34.0022 6.73655 34.0782 6.92008 34.0782 7.11145V25.0241C34.0782 25.2155 34.0022 25.399 33.8669 25.5343C33.7316 25.6697 33.548 25.7457 33.3567 25.7457ZM26.9141 24.3026H32.6351V7.83301H26.9141V24.3026Z" fill="#447D39"/>
<path d="M31.1108 7.83296C30.9195 7.83296 30.7359 7.75694 30.6006 7.62162C30.4653 7.4863 30.3893 7.30277 30.3893 7.1114V1.44312H29.1599V7.1114C29.1599 7.30277 29.0839 7.4863 28.9486 7.62162C28.8133 7.75694 28.6297 7.83296 28.4384 7.83296C28.247 7.83296 28.0635 7.75694 27.9281 7.62162C27.7928 7.4863 27.7168 7.30277 27.7168 7.1114V0.721558C27.7168 0.530189 27.7928 0.346658 27.9281 0.211339C28.0635 0.0760212 28.247 0 28.4384 0H31.1108C31.3022 0 31.4857 0.0760212 31.621 0.211339C31.7564 0.346658 31.8324 0.530189 31.8324 0.721558V7.1114C31.8324 7.30277 31.7564 7.4863 31.621 7.62162C31.4857 7.75694 31.3022 7.83296 31.1108 7.83296Z" fill="#447D39"/>
<path d="M33.5107 1.4436H26.0389C25.8476 1.4436 25.664 1.36758 25.5287 1.23226C25.3934 1.09695 25.3174 0.913415 25.3174 0.722046C25.3174 0.530677 25.3934 0.347146 25.5287 0.211827C25.664 0.0765091 25.8476 0.000488281 26.0389 0.000488281H33.5107C33.702 0.000488281 33.8856 0.0765091 34.0209 0.211827C34.1562 0.347146 34.2322 0.530677 34.2322 0.722046C34.2322 0.913415 34.1562 1.09695 34.0209 1.23226C33.8856 1.36758 33.702 1.4436 33.5107 1.4436ZM31.1115 31.1578H28.4386C28.2472 31.1578 28.0637 31.0818 27.9284 30.9465C27.793 30.8111 27.717 30.6276 27.717 30.4362V25.0246C27.717 24.8332 27.793 24.6497 27.9284 24.5143C28.0637 24.379 28.2472 24.303 28.4386 24.303C28.6299 24.303 28.8135 24.379 28.9488 24.5143C29.0841 24.6497 29.1601 24.8332 29.1601 25.0246V29.7147H30.3899V25.0246C30.3899 24.8332 30.466 24.6497 30.6013 24.5143C30.7366 24.379 30.9201 24.303 31.1115 24.303C31.3029 24.303 31.4864 24.379 31.6217 24.5143C31.757 24.6497 31.833 24.8332 31.833 25.0246V30.4362C31.833 30.6276 31.757 30.8111 31.6217 30.9465C31.4864 31.0818 31.3029 31.1578 31.1115 31.1578Z" fill="#447D39"/>
<path d="M29.7748 37.5211C29.5835 37.5211 29.3999 37.4451 29.2646 37.3098C29.1293 37.1745 29.0533 36.991 29.0533 36.7996V30.4364C29.0533 30.245 29.1293 30.0615 29.2646 29.9261C29.3999 29.7908 29.5835 29.7148 29.7748 29.7148C29.9662 29.7148 30.1497 29.7908 30.285 29.9261C30.4204 30.0615 30.4964 30.245 30.4964 30.4364V36.7996C30.4964 36.991 30.4204 37.1745 30.285 37.3098C30.1497 37.4451 29.9662 37.5211 29.7748 37.5211ZM28.8729 12.3113H26.1927C26.0014 12.3113 25.8178 12.2353 25.6825 12.0999C25.5472 11.9646 25.4712 11.7811 25.4712 11.5897C25.4712 11.3984 25.5472 11.2148 25.6825 11.0795C25.8178 10.9442 26.0014 10.8682 26.1927 10.8682H28.8729C29.0643 10.8682 29.2478 10.9442 29.3831 11.0795C29.5184 11.2148 29.5944 11.3984 29.5944 11.5897C29.5944 11.7811 29.5184 11.9646 29.3831 12.0999C29.2478 12.2353 29.0643 12.3113 28.8729 12.3113ZM28.8729 16.7894H26.1927C26.0014 16.7894 25.8178 16.7134 25.6825 16.5781C25.5472 16.4428 25.4712 16.2593 25.4712 16.0679C25.4712 15.8765 25.5472 15.693 25.6825 15.5577C25.8178 15.4224 26.0014 15.3463 26.1927 15.3463H28.8729C29.0643 15.3463 29.2478 15.4224 29.3831 15.5577C29.5184 15.693 29.5944 15.8765 29.5944 16.0679C29.5944 16.2593 29.5184 16.4428 29.3831 16.5781C29.2478 16.7134 29.0643 16.7894 28.8729 16.7894ZM28.8729 21.2676H26.1927C26.0014 21.2676 25.8178 21.1916 25.6825 21.0563C25.5472 20.921 25.4712 20.7374 25.4712 20.5461C25.4712 20.3547 25.5472 20.1712 25.6825 20.0358C25.8178 19.9005 26.0014 19.8245 26.1927 19.8245H28.8729C29.0643 19.8245 29.2478 19.9005 29.3831 20.0358C29.5184 20.1712 29.5944 20.3547 29.5944 20.5461C29.5944 20.7374 29.5184 20.921 29.3831 21.0563C29.2478 21.1916 29.0643 21.2676 28.8729 21.2676Z" fill="#447D39"/>
</svg>
