<svg width="512" height="512" viewBox="0 0 512 512" fill="none" xmlns="http://www.w3.org/2000/svg">
<mask id="mask0_8086_37" style="mask-type:luminance" maskUnits="userSpaceOnUse" x="0" y="0" width="512" height="512">
<path d="M500.998 500.999V11.0005H11V500.999H500.998Z" fill="white" stroke="white" stroke-width="22"/>
</mask>
<g mask="url(#mask0_8086_37)">
<path d="M297.22 296.709L393.565 200.365L446.367 198.585C472.628 197.7 494.258 177.673 497.16 151.558C500.454 121.909 478.595 95.4008 448.86 92.9898L421.245 90.7508L419.005 63.1349C416.595 33.401 390.087 11.5401 360.437 14.8351C334.322 17.7361 314.295 39.367 313.41 65.6279L311.63 118.431L215.285 214.774L215.336 214.727L118.992 311.072L66.1898 312.852C39.9289 313.737 18.2979 333.764 15.3959 359.879C12.1019 389.529 33.9619 416.036 63.6968 418.447L91.3117 420.687L93.5517 448.302C95.9627 478.037 122.47 499.897 152.119 496.603C178.234 493.701 198.261 472.07 199.146 445.809L200.926 393.007L297.271 296.662" stroke="#0A504B" stroke-width="22" stroke-miterlimit="10" stroke-linecap="round" stroke-linejoin="round"/>
</g>
</svg>
