<svg width="34" height="37" viewBox="0 0 34 37" fill="none" xmlns="http://www.w3.org/2000/svg">
<path d="M33.3577 6.04505C33.1963 5.03107 32.3085 4.27437 31.2844 4.27437H31.2642C24.8978 4.33995 18.7585 6.61005 13.8803 10.6761C13.7289 8.89024 13.2194 7.14983 12.377 5.55571C11.2268 3.38146 9.49648 1.56538 7.38276 0.304218C6.53021 -0.205294 5.46579 -0.0640435 4.79989 0.647254C1.63184 4.02214 -0.0732553 8.43117 0.00241464 13.0622C0.0730399 17.5217 1.78823 21.7188 4.84529 24.9424C4.55775 26.0421 4.34083 27.162 4.19453 28.3021C4.134 28.7713 4.4619 29.2001 4.9361 29.2656C4.97141 29.2707 5.01177 29.2707 5.04708 29.2707C5.47083 29.2707 5.83909 28.9579 5.89459 28.5241C6.05097 27.3386 6.28302 26.1783 6.59579 25.0533C6.63111 24.9777 6.65128 24.902 6.66137 24.8213C9.75375 13.9803 19.7523 6.11063 31.2945 5.98955H31.2995C31.4811 5.98955 31.6526 6.13585 31.6829 6.31242C32.3185 10.3229 32.3387 14.3889 31.7435 18.4045C31.7334 18.4347 31.7233 18.465 31.7182 18.4953C30.5327 23.5854 27.2234 27.9338 22.6277 30.4209C18.5769 32.6203 13.8601 33.1954 9.43594 32.0806C10.9292 31.0969 12.3618 30.0173 13.7289 28.8419C17.3359 25.7394 20.3677 22.0719 22.7387 17.9505C22.9758 17.5418 22.8346 17.0172 22.4209 16.7801C22.0123 16.543 21.4876 16.6842 21.2505 17.0979C17.7899 23.0758 12.8411 28.0701 6.95901 31.5912C6.93378 31.6013 6.91361 31.6165 6.88838 31.6316C5.00168 32.7565 3.02417 33.7251 0.965946 34.5323C0.52706 34.7038 0.305095 35.2032 0.481658 35.6421C0.612819 35.9801 0.935678 36.1869 1.27872 36.1869C1.38465 36.1869 1.49059 36.1667 1.59148 36.1264C3.62953 35.3293 5.58686 34.3809 7.46347 33.2862C9.55197 33.9925 11.7212 34.3456 13.8853 34.3456C17.1845 34.3456 20.4686 33.5334 23.4248 31.9242C28.3988 29.2303 32.0007 24.5388 33.3275 19.0451C33.3577 18.9745 33.383 18.8989 33.3931 18.8181C34.0438 14.5806 34.0287 10.2826 33.3577 6.04505ZM8.61366 16.5178C8.60357 15.5996 8.56321 14.7471 8.49259 13.9299C8.3362 12.1844 8.03857 10.3481 7.58455 8.30506C7.48365 7.84095 7.02459 7.5534 6.56048 7.65429C6.09637 7.75519 5.80883 8.21425 5.90972 8.67836C6.3486 10.6458 6.63615 12.4114 6.78244 14.0812C6.9237 15.6804 6.93883 17.4409 6.8228 19.6051C6.27798 20.7048 5.80378 21.8399 5.4103 23.0103C0.244559 16.8457 0.421122 7.80059 6.04088 1.81762C6.15186 1.69655 6.34356 1.68141 6.49994 1.77221C10.1775 3.9616 12.3417 7.92671 12.2055 12.1844C10.8629 13.502 9.6593 14.9541 8.61366 16.5178Z" fill="#E5097F"/>
</svg>
