<svg width="38" height="38" viewBox="0 0 38 38" fill="none" xmlns="http://www.w3.org/2000/svg">
<path d="M28.7721 34.4388C28.5665 34.0845 28.1125 33.9638 27.7577 34.1694L27.7291 34.1858C27.3747 34.3915 27.2541 34.8456 27.4597 35.2002C27.5085 35.2845 27.5736 35.3584 27.651 35.4175C27.7285 35.4767 27.8168 35.52 27.911 35.5451C28.0052 35.5701 28.1034 35.5763 28.2 35.5634C28.2966 35.5504 28.3897 35.5185 28.474 35.4696L28.5026 35.4531C28.8571 35.2475 28.9777 34.7933 28.7721 34.4388Z" fill="#447D39"/>
<path d="M35.454 9.50591C32.917 5.11177 28.8208 1.96866 23.9198 0.655433C19.019 -0.657799 13.8999 0.0161845 9.5058 2.55307C5.11173 5.08995 1.96856 9.18624 0.6554 14.0871C-0.657757 18.9881 0.0161513 24.1072 2.55303 28.5012C4.82866 32.4428 8.4455 35.4383 12.7373 36.9359C14.7557 37.6402 16.8782 37.9999 19.016 38C21.3216 38 23.6231 37.581 25.7985 36.7449C26.1811 36.5979 26.372 36.1685 26.2249 35.7859C26.0778 35.4033 25.6484 35.2122 25.2659 35.3595C19.4753 37.5851 13.2067 36.5739 8.52321 33.0584L9.18814 29.5876L9.50854 29.4835C10.7193 29.0902 11.3843 27.7851 10.9911 26.5743L10.7559 25.8507C10.7016 25.6844 10.7018 25.5051 10.7567 25.339C10.8586 25.028 10.8933 24.6989 10.8585 24.3734C10.8236 24.048 10.72 23.7337 10.5544 23.4514C10.3888 23.1691 10.1651 22.9252 9.89808 22.7359C9.63109 22.5466 9.32691 22.4162 9.00571 22.3533L7.33059 22.026L4.0985 19.5686C4.0031 19.496 3.89155 19.4477 3.77339 19.4276C3.65523 19.4076 3.53397 19.4165 3.41999 19.4535L1.5277 20.0682C1.48768 19.3933 1.48682 18.7167 1.5251 18.0418C1.57737 18.0898 1.62845 18.1391 1.67829 18.1896C1.71548 18.2517 1.7615 18.308 1.81492 18.3568C1.96945 18.4975 2.10943 18.5614 2.40333 18.5614C2.67342 18.5613 3.07323 18.5075 3.73341 18.41C4.15233 18.3475 4.57072 18.2816 4.98853 18.2121C5.11132 18.1915 5.22695 18.1403 5.32478 18.0633C5.4226 17.9862 5.49948 17.8859 5.54832 17.7713C5.59717 17.6568 5.61642 17.5318 5.6043 17.4079C5.59218 17.284 5.54908 17.1651 5.47897 17.0622L4.56897 15.7275L5.87241 14.7954C5.95924 14.7333 6.03167 14.6532 6.08475 14.5606L8.10521 11.0333L8.91962 10.1607C9.75183 9.2687 9.98933 7.96371 9.52458 6.83587C9.25041 6.17065 8.77155 5.61683 8.1726 5.24358C8.83006 4.72639 9.52362 4.25682 10.248 3.83846C12.945 2.28135 15.8882 1.52676 18.8005 1.49789L17.4752 3.16033L12.5608 4.88317C12.4621 4.91775 12.3719 4.9728 12.2959 5.04471C12.22 5.11662 12.1602 5.20376 12.1203 5.30043L10.7479 8.62752C10.6999 8.74377 10.6823 8.87029 10.6966 8.99522C10.711 9.12015 10.7568 9.23938 10.8299 9.34173L12.8344 12.1496C12.5473 12.4115 12.2679 12.793 11.9341 13.2667C11.7877 13.4744 11.6495 13.6706 11.554 13.7806C11.4718 13.875 11.3889 13.969 11.3055 14.0624C10.8743 14.5475 10.4286 15.0491 10.1119 15.7192C9.41555 17.1931 9.55619 18.9062 10.4789 20.19C11.3711 21.4313 12.8419 22.0624 14.4118 21.8777C14.6676 21.8477 14.906 21.7887 15.1368 21.7316C15.7731 21.5741 15.9747 21.5584 16.1788 21.7494C16.2781 21.8424 16.2872 21.86 16.2852 22.1754C16.2838 22.3761 16.2822 22.6257 16.3514 22.9108C16.4622 23.3669 16.7486 23.6821 16.9787 23.9353C17.0931 24.0611 17.2114 24.1913 17.2478 24.2787C17.4793 24.8334 17.3785 25.1406 17.1576 25.8138C17.1382 25.8726 17.119 25.9315 17.1 25.9904C16.7645 27.0291 17.2322 28.0594 17.6449 28.9683C17.7789 29.2635 17.9055 29.5421 17.9884 29.7883C18.6557 31.7684 19.1559 32.2219 19.5574 32.4045C19.7676 32.5001 19.9852 32.542 20.2051 32.5419C21.2749 32.5419 22.3913 31.5485 22.9042 30.9188C23.2263 30.5233 23.3056 30.1274 23.3635 29.8381C23.3924 29.6943 23.4151 29.5807 23.4585 29.5065C23.5248 29.393 23.603 29.3049 23.7019 29.1935C23.9009 28.9694 24.1485 28.6906 24.3089 28.1853C24.4308 27.8014 24.5193 27.7073 24.8126 27.395C24.8676 27.3367 24.9222 27.2781 24.9765 27.2192C25.965 26.1435 25.7104 25.3218 25.4408 24.4518C25.2139 23.7198 25.6107 23.2516 26.5702 22.3581C26.9862 21.9708 27.4162 21.5703 27.7486 21.089C27.8941 20.8784 28.3367 20.2377 28.0628 19.6026C27.7943 18.9799 27.112 18.8752 26.5639 18.7912C26.3474 18.758 26.0202 18.7078 25.9161 18.6397C25.4569 18.3395 25.176 17.713 24.9042 17.107C24.8501 16.9864 24.7968 16.8673 24.7427 16.7518C24.6462 16.5456 24.5498 16.2961 24.4477 16.0321C24.1777 15.3332 23.8717 14.5411 23.3508 13.9889C22.8825 13.4927 21.9998 13.2537 21.2211 13.0428C20.9591 12.9719 20.7119 12.905 20.5489 12.8448C20.4124 12.7944 20.2641 12.7852 20.1225 12.8184C19.7434 12.9073 19.507 13.0052 19.3314 13.1459C19.285 13.1831 19.1476 13.3052 19.0671 13.5014C18.7954 13.371 18.4218 13.122 18.1919 12.9687L18.1776 12.9592C18.255 12.6491 18.1849 12.4002 18.1114 12.2448C17.6968 11.3678 16.3206 11.4365 16.0491 11.4596C15.8949 11.4725 15.6997 11.4794 15.4933 11.4867C15.1692 11.4982 14.8108 11.5111 14.4563 11.5509L14.4745 11.4999C14.7437 10.7501 15.4597 10.2463 16.2564 10.2463H16.6783C17.0881 10.2463 17.4204 9.91396 17.4204 9.5042C17.4204 9.09443 17.0881 8.76208 16.6783 8.76208H16.2564C15.0736 8.76208 13.9906 9.38456 13.3835 10.3643L12.2765 8.81366L13.3656 6.17377L18.1678 4.49018C18.2996 4.44399 18.4156 4.3616 18.5026 4.25246L20.6374 1.57471C26.092 2.09358 31.2265 5.15184 34.1687 10.2479C34.9377 11.5799 35.5258 13.0085 35.9175 14.4959L35.6029 14.7764C35.3995 14.9584 35.2358 15.1804 35.1222 15.4285C35.0085 15.6766 34.9473 15.9455 34.9424 16.2184C34.9424 16.2244 34.9422 16.2303 34.942 16.2363L34.4294 14.8267C34.3534 14.6171 34.2402 14.4229 34.0952 14.2535L33.1809 13.183C33.0062 12.9782 32.7891 12.8137 32.5446 12.701C32.3001 12.5883 32.034 12.53 31.7648 12.5302H30.6456C30.451 12.53 30.26 12.5827 30.0931 12.6827C29.9261 12.7827 29.7895 12.9262 29.6978 13.0979C29.6059 13.2694 29.5622 13.4627 29.5717 13.657C29.5811 13.8514 29.6432 14.0396 29.7513 14.2014L29.8645 14.3714C29.1413 14.9933 28.3049 15.4909 27.4143 15.8265L25.8802 12.888V12.2324C25.8802 12.1321 25.8598 12.0327 25.8203 11.9405C25.7808 11.8482 25.7231 11.7649 25.6504 11.6957L24.269 10.3769C24.1928 10.3041 24.1019 10.2485 24.0026 10.2135L22.759 9.77651C22.3721 9.64039 21.9486 9.84397 21.8128 10.2306C21.6769 10.6173 21.8802 11.0409 22.2669 11.1768L23.3597 11.5609L24.3959 12.55V13.0701C24.3959 13.1897 24.4249 13.3076 24.4802 13.4136L26.4008 17.0924C26.4843 17.2524 26.6232 17.3765 26.7915 17.4414C26.9599 17.5064 27.1461 17.5077 27.3154 17.4453L27.8746 17.2391C29.1738 16.7599 30.378 15.9892 31.3571 15.0102C31.4785 14.8889 31.554 14.7293 31.5709 14.5586C31.5878 14.3878 31.545 14.2165 31.4498 14.0738L31.4104 14.0145H31.7648C31.8195 14.0145 31.8735 14.0263 31.9232 14.0492C31.9728 14.0721 32.0169 14.1055 32.0524 14.1471L32.9667 15.2176C32.9962 15.2521 33.019 15.2911 33.0346 15.334L34.0436 18.1085C34.0863 18.2257 34.1578 18.3303 34.2516 18.4126C34.3454 18.4949 34.4585 18.5522 34.5803 18.5792C34.7021 18.6062 34.8288 18.6021 34.9486 18.5672C35.0684 18.5323 35.1774 18.4677 35.2657 18.3795L35.7459 17.8993C36.0501 17.595 36.2595 17.2101 36.3595 16.7835C37.1023 22.7362 34.7682 28.894 29.8345 32.7663C29.5121 33.0193 29.4558 33.4858 29.709 33.8083C29.962 34.1307 30.4284 34.187 30.7509 33.9338C34.3128 31.1382 36.7598 27.1397 37.6412 22.6747C38.5308 18.1667 37.7541 13.4898 35.454 9.50591ZM3.5092 20.9851L6.56947 23.312C6.65988 23.3807 6.76488 23.4278 6.87637 23.4496L8.72086 23.81C8.95628 23.856 9.15266 23.9952 9.27401 24.2022C9.39536 24.409 9.42089 24.6484 9.34623 24.8763C9.19258 25.3415 9.19187 25.8436 9.34422 26.3092L9.57935 27.0327C9.71985 27.4651 9.4822 27.9313 9.04987 28.0718L8.31236 28.3114C8.18605 28.3525 8.07308 28.4267 7.98522 28.5262C7.89736 28.6258 7.83783 28.7472 7.81286 28.8776L7.21926 31.9762C5.91426 30.7818 4.76847 29.3701 3.83843 27.7592C2.70377 25.7941 1.99483 23.6981 1.68237 21.5787L3.5092 20.9851ZM7.83446 9.14802L6.96142 10.0834C6.92244 10.1252 6.8884 10.1713 6.85996 10.2209L4.87742 13.6822L3.11539 14.9422C2.9576 15.055 2.85025 15.2251 2.81632 15.416C2.78239 15.607 2.82458 15.8037 2.93385 15.9639L3.59284 16.9306C3.21299 16.9871 2.8721 17.0337 2.64544 17.0584C2.60035 17.0154 2.55492 16.9728 2.50917 16.9305C2.33275 16.7666 2.0876 16.5477 1.72215 16.2279C2.32488 12.4975 4.12247 8.98303 6.94962 6.30038C7.49097 6.47087 7.93525 6.87469 8.15227 7.40142C8.39645 7.99384 8.27161 8.67948 7.83446 9.14802ZM13.8855 13.2036C14.2166 13.0173 14.9849 12.99 15.5458 12.9702C15.7706 12.9622 15.983 12.9546 16.1727 12.9388C16.2729 12.9304 16.384 12.9319 16.4889 12.9401C16.4231 13.1091 16.4214 13.2964 16.4843 13.4666C16.5472 13.6367 16.6703 13.7779 16.8303 13.8635C16.9696 13.938 17.1633 14.0672 17.3685 14.204C17.9485 14.5907 18.606 15.0289 19.2237 15.0682C19.7854 15.1047 20.0979 14.7846 20.2318 14.6482C20.2425 14.6374 20.2526 14.6266 20.2633 14.6167C20.345 14.5496 20.4125 14.467 20.4619 14.3735C20.5805 14.4074 20.7052 14.4412 20.833 14.4758C21.2725 14.5948 22.0905 14.8163 22.2712 15.0078C22.5922 15.3481 22.8424 15.9958 23.0632 16.5672C23.1747 16.856 23.2801 17.1285 23.3983 17.3812C23.4491 17.4896 23.4991 17.6013 23.5498 17.7145C23.8923 18.4783 24.2804 19.3442 25.1039 19.8824C25.4773 20.1265 25.935 20.1966 26.3389 20.2586C26.3877 20.2661 26.4437 20.2747 26.5005 20.2841C26.2608 20.6185 25.9195 20.9363 25.5589 21.2721C24.6401 22.1277 23.4967 23.1926 24.0233 24.8914C24.2718 25.6936 24.2834 25.7803 23.8837 26.2151C23.8293 26.2744 23.7785 26.3284 23.7309 26.379C23.3886 26.7434 23.1182 27.0312 22.8944 27.7363C22.8294 27.9411 22.7451 28.0359 22.5922 28.2081C22.4699 28.3459 22.3175 28.5175 22.177 28.7579C22.0087 29.0461 21.953 29.3235 21.9084 29.5464C21.8644 29.7657 21.8394 29.8758 21.7533 29.9814C21.5573 30.2221 21.1917 30.5715 20.8164 30.81C20.4676 31.0314 20.2639 31.0617 20.1945 31.0576C20.1153 30.9726 19.8285 30.6009 19.395 29.3144C19.2882 28.9971 19.1399 28.6705 18.9965 28.3547C18.6804 27.6585 18.3536 26.9386 18.5126 26.4466C18.5314 26.3886 18.5499 26.3319 18.5682 26.2764C18.8221 25.5023 19.0619 24.7713 18.6177 23.707C18.4825 23.3829 18.2672 23.1461 18.0774 22.9371C17.9546 22.8019 17.8154 22.6488 17.794 22.5606C17.7679 22.453 17.7687 22.3289 17.7696 22.1851C17.7722 21.7973 17.776 21.2114 17.1935 20.6658C16.3722 19.8971 15.4144 20.1339 14.7806 20.2907C14.5859 20.3388 14.402 20.3843 14.239 20.4035C13.1964 20.5256 12.2656 20.1323 11.6844 19.3236C11.0765 18.4777 10.9882 17.3394 11.4542 16.3531C11.6797 15.8758 12.0205 15.4923 12.415 15.0484C12.5012 14.9514 12.5882 14.8536 12.6752 14.7534C12.8199 14.5866 12.9792 14.3606 13.1476 14.1214C13.3486 13.8361 13.723 13.3047 13.8855 13.2036Z" fill="#447D39"/>
<path d="M30.4311 25.5519L30.074 24.2061C30.0359 24.0624 29.9555 23.9336 29.8433 23.8361C29.7312 23.7387 29.5923 23.6772 29.4448 23.6595C29.2972 23.642 29.1478 23.6692 29.0158 23.7375C28.8838 23.8057 28.7753 23.912 28.7044 24.0426C28.623 24.1925 28.5498 24.3513 28.4789 24.5049C28.3598 24.7632 28.2366 25.0304 28.1084 25.1779C28.0365 25.2607 27.8515 25.35 27.6728 25.4362C27.2455 25.6424 26.6603 25.9248 26.4367 26.6375C26.2979 27.0795 26.3498 27.4292 26.3876 27.6846C26.4203 27.906 26.4279 27.9827 26.3686 28.1219L26.3612 28.1392C26.1249 28.6936 25.6854 29.7256 26.3017 30.6029C26.7415 31.229 27.2039 31.39 27.5632 31.39C27.6294 31.3902 27.6956 31.3848 27.761 31.3741C28.5181 31.2503 29.0872 30.4629 29.5522 28.8957L30.4252 25.9535C30.464 25.8228 30.4661 25.6838 30.4311 25.5519ZM28.1294 28.4734C27.8923 29.2725 27.6826 29.6455 27.5615 29.8109C27.5476 29.793 27.5324 29.7729 27.5163 29.7498C27.3744 29.5478 27.5864 29.0502 27.7267 28.7209L27.7342 28.7035C27.9604 28.1725 27.8999 27.7648 27.8559 27.467C27.8276 27.2764 27.8175 27.1944 27.8529 27.0818C27.882 26.9893 28.0559 26.8995 28.3179 26.773C28.434 26.7169 28.5619 26.6552 28.691 26.5805L28.1294 28.4734ZM20.041 8.82164L19.9909 8.80413C19.6044 8.66875 19.1806 8.87204 19.045 9.25879C18.9093 9.64562 19.1129 10.069 19.4996 10.2047L19.5497 10.2222C19.6286 10.25 19.7116 10.2642 19.7953 10.2642C20.1017 10.2642 20.3885 10.073 20.4957 9.76756C20.6313 9.38073 20.4277 8.95724 20.041 8.82164Z" fill="#447D39"/>
</svg>
