<?xml version="1.0" encoding="UTF-8"?>
<!DOCTYPE svg PUBLIC "-//W3C//DTD SVG 1.1//EN" "http://www.w3.org/Graphics/SVG/1.1/DTD/svg11.dtd">
<!-- Creator: CorelDRAW 2020 (64-Bit) -->
<svg xmlns="http://www.w3.org/2000/svg" xml:space="preserve" width="800mm" height="800mm" version="1.1" style="shape-rendering:geometricPrecision; text-rendering:geometricPrecision; image-rendering:optimizeQuality; fill-rule:evenodd; clip-rule:evenodd"
viewBox="0 0 80000 80000"
 xmlns:xlink="http://www.w3.org/1999/xlink"
 xmlns:xodm="http://www.corel.com/coreldraw/odm/2003">
 <defs>
  <style type="text/css">
   <![CDATA[
    .fil1 {fill:none}
    .fil0 {fill:#1C1B17}
   ]]>
  </style>
 </defs>
 <g id="Layer_x0020_1">
  <metadata id="CorelCorpID_0Corel-Layer"/>
  <path class="fil0" d="M35278.61 34191.39c112.76,-2494.91 -489.97,-5580.06 -2342.11,-7196.81 -2096.02,-1829.65 -3511.76,-739.14 -3868.18,-3278.64 -82.6,-588.47 98.7,-1390.47 322.27,-1893.3 551.71,-116.56 2668.53,1170.25 3139.76,1550.63 1473.58,1189.5 3361.56,3806.18 3734.99,5675.83 868.56,4348.63 -996.65,12549.46 -214.86,17565.06 269.84,1731.4 681.72,2121.15 1242.1,3388.54 -964,-171.4 -1738.08,-1640.69 -2075.84,-2663 -1045.1,-3163.18 -96.35,-9647.14 61.87,-13148.31zm32535.23 6342.87c-2581.5,79.27 -2927.64,842.84 -4469.42,2118.22l-2518.99 2434.48c-278.26,315.26 -485.25,572.33 -801.88,859.66 -475.9,431.78 -1178.43,1183.95 -1734.31,1567.71 -2111.05,1457.34 -2238.26,1291.35 -4453.97,2169.6 -962.51,381.51 -1458.19,622.89 -2289.69,1112.78 -5350.54,3152.29 -6376.08,6862.41 -7162.41,12782.19 -253.66,1909.65 -539.18,4210 -545.12,6211.98 1587.35,1456.72 1456.06,-752.61 1581.62,-2044.48 383.98,-3951.55 521.8,-8756.05 2671.09,-11927.53 193.24,-285.18 275.76,-378.42 470.65,-664.24 426.31,-625.33 1291.71,-1391.53 1850.48,-1875.69 3146.53,-2726.46 5411.53,-1936.47 9346.12,-5224.48 1534.13,-1282 2941.2,-2711.82 4340.02,-4131.8 887.21,-900.61 2581.45,-2550.16 3969.37,-1834.12 3001.93,1548.71 -5299.21,9438.75 -6968.83,11126.47l-2379.2 2527.17 -5.45 500.78c1135.68,1103.01 1717.77,-347.81 3673.97,-2354.72 305.34,-313.24 558.38,-570.47 885.71,-871.66 306.93,-282.45 660.48,-550.32 928.63,-829.53 152.7,-159.05 208.75,-264.65 377.45,-439.16 190.88,-197.46 276.91,-292.4 457.59,-480.38l1712.37 -1897.49c248.67,-358.06 474.61,-606.1 763.8,-994.15 539.09,-723.4 987.39,-1300.11 1518.2,-2097.19 888.89,-1334.85 1926.36,-3838.87 201.28,-5030.27 4.89,-572.14 135.83,-993.12 242.34,-1553.47 301.2,-1584.3 424.14,-3354.6 639.8,-4924.24 308.85,-2247.74 244.81,-4747.12 2783.28,-4621.15 682.52,1649.25 707.53,7556.67 705.9,10139.08 -1.26,1620.26 -256.61,3949.19 -592.2,5308.3 -1172.1,4746.74 -4076.25,10055.26 -7723.16,12956.24l-4917.84 4060.94c-1042.16,937.73 -2047.79,1535.73 -3069.46,2827.93 -789.38,998.42 -1630.48,2834.9 -1452.46,4484.69 286.08,277.79 382.46,318.04 939.35,320.94 1210.95,-1286.56 -376.66,-2382.78 3336.93,-5603.62 520.94,-451.8 1131.5,-913.64 1619.71,-1379.03l4884.95 -4102.43c528.58,-504.08 995.87,-980.02 1527.81,-1469.63 1387.14,-1276.79 2774.78,-3582.5 3721.47,-5266.45 385.26,-685.36 586.4,-1284.4 961.18,-2033.67 740.25,-1479.83 1252.01,-2554.01 1582.89,-4403.29 692.29,-3869.06 674.36,-7280.75 463.95,-11177.9 -85.22,-1578.49 -5.36,-4377.49 -963.21,-5502.66 -576.73,-677.48 -899.69,-728.94 -1471.09,-728.24 -953.51,1.17 -2218.01,1085.71 -2587.35,1572.36 -634.82,836.51 -902.76,1993.2 -1002.53,3106.16 -273.53,3052.13 -612.89,4480.96 -1049.34,7274.99zm-62669.01 -6859.49c-20.55,5766.48 -946.03,10522.61 1738.26,16082.89 2720.71,5635.75 3244.89,6356.7 7721.17,10447.96l3358.05 2739.05c6471.24,5045.68 4134.19,6384.66 5043.76,7156.38 730.34,619.65 2091.35,-312.21 313.12,-3726.71 -351.92,-675.72 -801.49,-1317.13 -1231.45,-1763.95 -708.2,-735.88 -6055.53,-5112.62 -7518.34,-6322.3 -2447.86,-2024.26 -4627.22,-5031.16 -5798.47,-7964.77 -695.02,-1740.77 -1103.88,-2279.81 -1693.21,-4400.29 -973.78,-3503.73 -575.3,-8867.57 -419.25,-12663.65 36.41,-885.34 -126.49,-2252.33 477.85,-3001.96 13.73,-17.04 41.71,-47.92 53.22,-61.86 11.83,-14.3 36.88,-42.04 55.04,-63.28 1309.57,-5.01 1757.21,514.28 2149.13,1500.31 434.4,1092.85 731.06,4921.69 943.51,6383.93 155.68,1071.27 448.53,2244.66 539.95,3258.34 -626.19,356.12 -1090.54,1308.32 -956.64,2429.05 98.16,821.46 603.48,1815.86 983.56,2435.36 753.31,1227.76 3479.01,4739.8 4549.42,5675.13 1367.72,1195.14 2911.68,2883.57 4250.72,4226.66 372.46,373.58 431.88,647.86 1125.46,669.48 311.66,-292.35 455.75,-317.05 560.21,-817.35 -32.51,-306 -4711.97,-5054.31 -5311.03,-5627.81 -1374.42,-1315.85 -4212.72,-4698.2 -4706.96,-6469.04 -431.85,-1547.3 1125.11,-2793.77 3372.08,-978.09 243.43,196.71 592.2,531.4 809.45,735.97 304.7,286.98 533.96,526.92 829.33,823.52 1059.02,1063.47 2033.27,2108.93 3265.27,3136.23 1436.39,1197.73 1987.34,1658.58 3739.57,2568.77 2228.78,1157.73 4749.36,1578.88 7113.18,3945.63 766.06,767.04 1469.71,1754.21 2046.87,2813.25 1185.71,2175.82 1861.61,8078.32 1989.65,10724.06 59.66,1232.94 -44.76,1747.92 504.34,2672.73 1425.38,51.93 1124.26,-945.43 1003.99,-2129.5 -100.31,-987.47 -178.78,-2061.67 -293.64,-3119.11 -550.28,-5066.83 -961.63,-8819.2 -4678.44,-12361.95 -803.14,-765.52 -3134.82,-2235.74 -4248.57,-2667.89 -798.54,-309.81 -1643.23,-599.7 -2434.54,-971.38 -2276.81,-1069.43 -4138.2,-2543.3 -5745.8,-4498.65 -538.97,-655.57 -2884.82,-2753.96 -3618.06,-3199.29 -782.96,-475.46 -1583.87,-845.08 -2778.8,-748.59l-833.64 -5155.51c-418.63,-2889.26 100.71,-4491.25 -2620.67,-6357.87 -1817.49,-1246.61 -3226.82,335.48 -3406.64,1754.37 -110.94,875.26 -238.81,2008.23 -242.01,2891.73zm39030.24 9197.38c5.5,-2286.08 -437.33,-4524.26 -460.21,-6816.34 -40.19,-4028.83 -1121.48,-7639.43 2465.48,-11494.5 941.17,-1011.55 3207.27,-2525.32 4364.31,-2808.44l420.22 1277.73c-7.22,3084.21 -1423.24,2107.85 -3378.35,3553.37 -5678.23,4198.2 -701.12,15754.37 -2914.22,21057.4 -416.91,999 -923.45,1942.57 -1925.76,2364.75 1391.42,-2341.73 1421.91,-4382.02 1428.53,-7133.97zm8718.64 -31674.32c1436.61,-404.08 3269.26,436.36 4247.52,995.78 2367.3,1353.78 3791.92,3277.85 4866.29,5689.33 1766.73,3965.51 2304.71,9161.24 245.33,13032.83 -1118.28,2102.35 -3016.04,4192.16 -5712.96,4825.84 -3123.41,733.87 -5966.44,-1258.63 -6584.83,-3653.6 -942.23,-3649.14 1907.63,-5580.72 2401.49,-7859.87 865.6,-3994.59 -2679.85,-4345.56 -3570.57,-6987.93 -529.86,-1571.84 -10.08,-2892.96 822.33,-4026.74 696.39,-948.5 1817.46,-1602.78 3285.4,-2015.64zm-3447.22 9352.56l-1462.57 853.09c-4194.97,2115.91 -5899.24,5987.33 -5901.95,10927.85 -2.64,4868.26 1677.53,12243.81 -126.78,16313.93 -1118.72,2523.56 -1295.74,2130.94 -1294.45,5181.12 0.97,2316.27 1252.41,1230.19 1350.14,978.07 189.68,-489.49 -55.69,-2231 193.74,-3117.48 3533.38,-512.76 4460.4,-4713.94 4476.08,-7781.4 16.98,-3326.43 -416.53,-6369.05 -427.34,-9610.74 -5.44,-1640.74 27.36,-3119.25 579.17,-4424.95 434.57,-1028.36 1299.12,-2339.28 2428.38,-2558.63 -2941.64,5012 1556.61,11505.26 8176.6,9637.82 1168.43,-329.61 2541.86,-1111.09 3271.1,-1795.83 879.66,-825.96 1723.4,-1581.79 2348.23,-2811.19 1727.52,-3398.94 1978.61,-4297.08 1947.91,-8484.74 -38.66,-5279.85 -3621.78,-12036.05 -8823.95,-13693.66 -3121.67,-994.73 -6143.02,21.2 -7923.46,2413.03 -1719.01,2309.28 -1465.03,5239.64 464.52,7211.57 265.43,271.27 498.34,481.06 724.63,762.14zm-23821.05 -9350.01c2093.79,-517.33 5784.06,1410.81 5819.1,4698.76 40.6,3810.82 -3403.16,3353.98 -3814.79,6732.03 -210.9,1730.82 423.19,3025.28 1234.02,3996.54 628.55,752.88 1331.6,2557.33 1336.9,3944.92 23.17,6065.34 -8309.15,7436.17 -11782.22,1331.65 -1497.26,-2631.64 -2223.37,-4902.96 -1835.1,-8654.95 307.52,-2971.6 1316.06,-5759.17 2740.76,-7772.16 400.01,-565.19 775.82,-995.95 1213.23,-1478.1 1358.93,-1497.99 2957.02,-2272.17 5088.1,-2798.69zm5133.63 16065c4432.71,1975.36 2664.11,8870.96 2643.52,12816.82 -13.8,2644.78 -255.13,4974.55 409.47,7435.69 530.06,1962.97 1775.86,4082.75 4032.33,4128.48 69.31,649.44 45.95,3001.45 186.36,3316.62 289.62,594.72 863.87,425.15 1343.35,114.99 -65.68,-5816.56 -427.96,-3870.17 -1487.21,-6892.83 -2016.2,-5753.19 1983.12,-16988.33 -1335.03,-22327.49 -2718.28,-4373.92 -4384.53,-4031.24 -5937.88,-5305.02 939.36,-861.15 1682.33,-1581.39 2105.8,-3250.45 1251.86,-4933.99 -4174.7,-8391.28 -8027.86,-7402.89 -1373.27,352.25 -2738.99,906.35 -3675.71,1689.08 -3178.89,2656.26 -5159.24,6082.95 -5764.26,10326.21 -471.82,3308.76 -163.32,6537.27 1075.72,9199.01 621.46,1335.08 1799.18,3075.89 2809.58,3886.07 728.27,583.99 1502.26,1247.66 2435.36,1601.8 2896.15,1099.15 5854.39,988.13 8124.82,-1245.89 1905.96,-1875.38 2431.23,-4435.73 1517.09,-7057.16 -146.51,-420.17 -344.14,-661.2 -455.45,-1033.04z"/>
  <rect class="fil1" x="-5" y="5" width="80000" height="80000"/>
 </g>
</svg>
